<svg xmlns="http://www.w3.org/2000/svg" viewBox="0 0 427.72 405.06">
    <defs>
        <style>.cls-1{fill:#4b4e52;}.cls-2{fill:#783140;}.cls-3{fill:#fff;}
        </style>
    </defs>
    <title>automatisierung</title>
    <g id="Annotation">
        <path class="cls-1"
              d="M308.92,222.82a117.93,117.93,0,0,0,.73-14.91L347,186.82A154.2,154.2,0,0,0,341.2,162l-42.77-2.5a117.33,117.33,0,0,0-12-19.84l17.78-39A156.18,156.18,0,0,0,285,83.93L248.91,107a115.87,115.87,0,0,0-21.37-9l-8.52-42q-4.08-.69-8.24-1.17a156.91,156.91,0,0,0-17.18-1L178,93.72A115.84,115.84,0,0,0,155.41,99L123.87,70A156.25,156.25,0,0,0,102,83.21l10.83,41.43a116.79,116.79,0,0,0-15.22,17.5l-42.54-4.86a154.26,154.26,0,0,0-9.93,23.48l33.15,27.18c-.5,2.69-.95,5.41-1.27,8.17A118,118,0,0,0,76.31,211L39,232.11a154.51,154.51,0,0,0,5.76,24.84l42.78,2.5a117.09,117.09,0,0,0,12,19.84l-17.77,39A155.73,155.73,0,0,0,101,335L137,311.89a115.66,115.66,0,0,0,21.37,9l8.52,42q4.08.69,8.24,1.17a156.94,156.94,0,0,0,17.18,1l15.58-39.86A116,116,0,0,0,230.54,320l31.54,28.92a156.28,156.28,0,0,0,21.84-13.17L273.1,294.29a116.82,116.82,0,0,0,15.22-17.5l42.54,4.86a153.71,153.71,0,0,0,9.93-23.48L307.65,231C308.15,228.3,308.6,225.58,308.92,222.82ZM240.76,215a48.11,48.11,0,0,1-47.69,42.61,48.9,48.9,0,0,1-5.6-.32A48.11,48.11,0,1,1,240.76,215Z"
              transform="translate(-39 -53.86)"/>
        <path class="cls-2"
              d="M197,174.44a35.93,35.93,0,0,0-4.1-.24,35.34,35.34,0,1,0,4.1.24Z"
              transform="translate(-39 -53.86)"/>
        <path class="cls-3"
              d="M198.48,161.68a48.1,48.1,0,1,0-11,95.58,48.9,48.9,0,0,0,5.6.32,48.11,48.11,0,0,0,5.41-95.9ZM228,213.5a35.25,35.25,0,1,1-35.09-39.29,35.93,35.93,0,0,1,4.1.24,35.25,35.25,0,0,1,31,39.06Z"
              transform="translate(-39 -53.86)"/>
        <path class="cls-2"
              d="M465.51,381.66a92.12,92.12,0,0,0,1.21-15.25l-24-9.21c-.22-1.63-.48-3.26-.82-4.89a70.74,70.74,0,0,0-2.4-8.63l17.26-19.06a92.73,92.73,0,0,0-8-13.06l-24.83,6.66a70.65,70.65,0,0,0-10.57-9l2.75-25.55A93.39,93.39,0,0,0,402,277.76l-16.16,20a69.34,69.34,0,0,0-13.88-1.1l-12.79-22.28q-2.45.38-4.91.89a93.43,93.43,0,0,0-10,2.66l-1.33,25.64a69.82,69.82,0,0,0-11.89,7.26l-23.43-10.5A94.12,94.12,0,0,0,297.67,312l14,21.54a70.29,70.29,0,0,0-5.36,12.85l-25.14,5.28A92.79,92.79,0,0,0,280,366.86l24,9.2c.22,1.63.48,3.26.83,4.89a70.53,70.53,0,0,0,2.4,8.63l-17.26,19.07a93.51,93.51,0,0,0,8,13.06L322.75,415a70.17,70.17,0,0,0,10.57,9l-2.75,25.55a93.23,93.23,0,0,0,14.13,5.89l16.16-20a69.35,69.35,0,0,0,13.87,1.1l12.79,22.28c1.64-.26,3.28-.55,4.91-.9a93.67,93.67,0,0,0,10-2.66l1.33-25.65a69.22,69.22,0,0,0,11.89-7.26L439.06,433a94.32,94.32,0,0,0,10-11.63l-14-21.55a70.24,70.24,0,0,0,5.36-12.84Zm-85.74,15.75a31.71,31.71,0,0,1-6.49.67,31.48,31.48,0,1,1,6.49-.67Z"
              transform="translate(-39 -53.86)"/>
        <path class="cls-1"
              d="M383.52,351.09a18.46,18.46,0,0,0-10.13-3,18.61,18.61,0,0,0-18.23,22.39,18.58,18.58,0,1,0,28.36-19.35Z"
              transform="translate(-39 -53.86)"/>
        <path class="cls-3"
              d="M390.55,340.33a31.43,31.43,0,1,0-17.27,57.75,31.48,31.48,0,0,0,30.83-37.88A31.23,31.23,0,0,0,390.55,340.33Zm-13.41,44.5a18.58,18.58,0,0,1-7.6-36.38,18.74,18.74,0,0,1,3.84-.4,18.59,18.59,0,0,1,3.76,36.78Z"
              transform="translate(-39 -53.86)"/>
    </g>
</svg>