<svg xmlns="http://www.w3.org/2000/svg" viewBox="0 0 471.91 380.53"><defs><style>.cls-1{fill:#fff;}.cls-2{fill:#4b4e52;}.cls-3{fill:#783140;}</style></defs><title>business-value</title><g id="Annotation"><path class="cls-1" d="M408.25,84.56l-.18-.24-13.25-6.84c-15.66,42-31.15,83.72-47,126.13C320.14,161.36,293,120.12,265.33,78H246.77c-27.68,42.09-54.86,83.27-82.7,125.7-15.8-42.35-31.32-84.11-47-126.18l-13.4,7.13c16,42.9,31.69,85.43,47.56,127.52H20L22.29,228H157.14c28,73.67,56,149.68,84.76,226.88.37,1,.73,1.81,1.1,2.81l26.33-.1q27.9-75.38,55-147.88C334.58,282.39,344.77,254.3,355,228H489.83l2.07-15.79H360.73c15.85-42.09,31.5-84.66,47.53-127.64M256,91c26.59,40.52,52.86,80.46,79.56,121.24H176.46C203,171.43,229.34,131.58,256,91ZM256,450c-27.83-74.59-55.23-148.38-82.83-222H338.8C311.27,301.66,283.84,375.37,256,450Z" transform="translate(-20 -77.47)"/><path class="cls-2" d="M256,450c27.85-74.67,55.28-148.38,82.81-222H173.16C200.76,301.66,228.16,375.45,256,450Z" transform="translate(-20 -77.47)"/><path class="cls-2" d="M241.9,454.87C213.11,377.67,185.1,301.66,157.14,228H22.29C95.8,304.29,168.55,380.36,243,458,242.63,457,242.27,455.87,241.9,454.87Z" transform="translate(-20 -77.47)"/><path class="cls-2" d="M489.86,228H355c-10.19,26.31-20.38,54.36-30.62,81.67q-27.21,72.64-55.13,147.94c16.08-16.77,32.19-33.94,48.13-50.53C375.2,346.42,432.32,287.19,489.86,228Z" transform="translate(-20 -77.47)"/><path class="cls-2" d="M256,91c-26.64,40.62-53,80.46-79.52,121.24H335.54C308.84,171.43,282.57,131.48,256,91Z" transform="translate(-20 -77.47)"/><path class="cls-2" d="M360.73,212.2H491.91c-28-43.41-55.63-84.73-83.66-127.33C392.23,127.86,376.57,170.11,360.73,212.2Z" transform="translate(-20 -77.47)"/><path class="cls-2" d="M151.2,212.2c-15.87-42.09-31.56-84.7-47.56-127.6-1.25,1.9-2.49,3.63-3.74,5.53-26.42,40.23-52.3,80.11-78.41,119.55A10,10,0,0,0,20,212.2Z" transform="translate(-20 -77.47)"/><path class="cls-3" d="M246.77,78H117l47,126C191.91,161.62,219.08,120.12,246.77,78Z" transform="translate(-20 -77.47)"/><path class="cls-3" d="M394.83,78H265.33c27.65,42.09,54.86,83.61,82.58,125.85C363.72,161.47,379.17,118.81,394.83,78Z" transform="translate(-20 -77.47)"/></g></svg>