<svg xmlns="http://www.w3.org/2000/svg" xmlns:xlink="http://www.w3.org/1999/xlink" viewBox="0 0 474.37 420.95"><defs><style>.cls-1{fill:none;}.cls-2{clip-path:url(#clip-path);}.cls-3{fill:#783140;}.cls-4{fill:#4b4e52;}.cls-5{fill:#fff;}</style><clipPath id="clip-path" transform="translate(-18.81 -48.86)"><path class="cls-1" d="M460.47,48.86H51.53A32.23,32.23,0,0,0,19.34,81V437.62a32.23,32.23,0,0,0,32.19,32.19H460.47a32.23,32.23,0,0,0,32.19-32.19V81a32.23,32.23,0,0,0-32.19-32.19"/></clipPath></defs><title>komplexitaet</title><g id="Annotation"><g class="cls-2"><path class="cls-3" d="M251,259.49v-1.31h0v-68a42.51,42.51,0,1,0,34-68.06,42.3,42.3,0,0,0-23.47,7.07,42.74,42.74,0,0,0-10.5,9.89V48.86H18.81V259.49h88.57a42.52,42.52,0,1,1,59.92,0Z" transform="translate(-18.81 -48.86)"/><path class="cls-4" d="M286.37,209.61a42.38,42.38,0,0,1-30.13-12.53v56h.13v0h93a42.51,42.51,0,1,0,68.06,34,42.3,42.3,0,0,0-7.07-23.47,42.74,42.74,0,0,0-9.89-10.5H493V48.86H256.24V132.1c7.7-7.74,18.36-10.53,30.13-10.53a42.52,42.52,0,0,1,42.52,42.52C328.89,187.57,309.85,209.61,286.37,209.61Z" transform="translate(-18.81 -48.86)"/><path class="cls-5" d="M493.19,253.08H400.43a42.74,42.74,0,0,1,9.89,10.5,42.53,42.53,0,1,1-70.87,0,42.74,42.74,0,0,1,9.88-10.5h-93v0H185.08a53,53,0,1,0-95,0H19.26v10.5H112a42.74,42.74,0,0,1-9.89-10.5,42.53,42.53,0,1,1,70.87,0,42.74,42.74,0,0,1-9.88,10.5h93v0h71.29a53,53,0,1,0,95,0h70.81Z" transform="translate(-18.81 -48.86)"/><path class="cls-3" d="M227.49,419.48A42.3,42.3,0,0,0,251,412.41a42.74,42.74,0,0,0,10.5-9.89v67.29H493V263.58H422.38a53,53,0,1,1-95,0h-65.9v87.84a42.51,42.51,0,1,0-34,68.06Z" transform="translate(-18.81 -48.86)"/><path class="cls-5" d="M227.49,430a52.63,52.63,0,0,0,23.47-5.5v45.34h10.5V402.52a42.74,42.74,0,0,1-10.5,9.89,42.53,42.53,0,1,1,0-70.87,42.74,42.74,0,0,1,10.5,9.88v-93h0V212.18a53,53,0,1,0,0-95V48.86H251v90.26a42.74,42.74,0,0,1,10.5-9.89,42.53,42.53,0,1,1,0,70.87,42.74,42.74,0,0,1-10.5-9.88v68h0v71.29A53,53,0,1,0,227.49,430Z" transform="translate(-18.81 -48.86)"/><path class="cls-4" d="M251,469.81V424.47a53,53,0,1,1,0-95v-65.9H163.13c7.16-5.4,13.12-13.08,15.74-21.88a54.65,54.65,0,0,0,1.55-12.43c0-10.21-4.16-19.51-10.16-26.84A42.51,42.51,0,1,0,112,263.56H18.81V469.81Z" transform="translate(-18.81 -48.86)"/></g></g></svg>