<svg xmlns="http://www.w3.org/2000/svg" viewBox="0 0 254.75 469"><defs><style>.cls-1{fill:#fff;}.cls-2{fill:#783140;}.cls-3{fill:#4b4e52;}</style></defs><title>rahmenbdedingung</title><g id="Annotation"><path class="cls-1" d="M251,486.25c-21.93,0-45.65-4.63-70.5-13.75-23.19-8.52-46.9-20.13-46.9-41.68a28.83,28.83,0,0,1,4.4-15.59l15.07-29.9c6.61-13.24,17.44-14.67,21.79-14.67a30.16,30.16,0,0,1,15.88,4.87l.41.26c22.9,14.93,43.54,22.49,61.35,22.49,6.11,0,9.06-1.18,9.76-1.8,0,0,1-1.06,1-5.47,0-1,0-2.53-3.24-5.18s-12.64-8.92-40.47-22.13c-30.44-14.5-51-27.28-62.78-39.05-16.34-15.95-24.65-37.33-24.65-63.53,0-21.45,5.71-40.33,17-56.1a96.81,96.81,0,0,1,21-21.17A85,85,0,0,1,159.8,171a80.55,80.55,0,0,1-12.74-44.47c0-29.08,11.19-53.27,33.25-71.9C201.4,36.78,228.21,27.75,260,27.75c30.64,0,59,8.21,84.27,24.41,13.39,8.35,16.21,18.51,16.21,25.55a28.4,28.4,0,0,1-4.7,15.41l-14.37,27.55a25.05,25.05,0,0,1-22.68,14,32.29,32.29,0,0,1-15.34-4.27l-.2-.11c-24.58-13.51-38.23-15.52-44.18-15.52-9.39,0-13.12,1.59-14.2,2.19q0,.13,0,.29c2.56,1.71,12.06,7.36,46.45,24.7,30.83,15.55,51.15,28.92,62.13,40.87,15.29,16.56,23,37.05,23,60.9,0,20.1-5.44,38.18-16.18,53.73A102.42,102.42,0,0,1,340,318.9a87.53,87.53,0,0,1,12.26,15.25c8.58,13.62,12.93,29.32,12.93,46.65,0,29.32-11.57,54.63-34.38,75.21C308.56,476.08,281.72,486.25,251,486.25Zm1.08-253.94c-17.62,10.94-19,18.09-19,20.09,0,1.17,0,2.77,2.74,5.21,2.15,1.91,7.95,6.2,23,13.92C269.26,264.21,275,257.12,275,251.4a6.51,6.51,0,0,0-2.35-5.41C271.1,244.54,266.12,240.39,252.1,232.31Z" transform="translate(-126.88 -22.5)"/><path class="cls-2" d="M260,33a148.53,148.53,0,0,1,81.44,23.58c11.39,7.11,13.79,15.41,13.79,21.13a23.14,23.14,0,0,1-4,12.76l-14.49,27.78a19.9,19.9,0,0,1-18,11.15,27.21,27.21,0,0,1-12.87-3.65l-.15-.08c-24.32-13.37-38.82-16.17-46.71-16.17-10.9,0-15.56,2-17.37,3.23-.94.63-2.12,1.41-2.12,5.06,0,1.9.48,2.46,1.52,3.23,1.88,1.39,10.3,6.68,47.84,25.61,30.25,15.26,50.09,28.27,60.62,39.73,14.37,15.57,21.66,34.86,21.66,57.34,0,19-5.13,36.09-15.25,50.75a99.89,99.89,0,0,1-24,24.05,84.2,84.2,0,0,1,15.94,18.46c8,12.77,12.13,27.52,12.13,43.85,0,27.77-11,51.77-32.65,71.31C306,471.28,280.38,481,251,481c-21.31,0-44.42-4.52-68.69-13.43-21.49-7.89-43.46-18.43-43.46-36.76a23.45,23.45,0,0,1,3.71-13l15.2-30.15c5.31-10.64,13.73-11.79,17.1-11.79A25,25,0,0,1,188,380l.3.19c23.76,15.49,45.37,23.34,64.21,23.34,6.26,0,11-1.11,13.24-3.12,1.84-1.62,2.77-4.79,2.77-9.4,0-2.48-.61-5.52-5.16-9.24-4.1-3.36-14.63-10-41.55-22.81-29.89-14.24-49.95-26.68-61.32-38-15.34-15-23.11-35.09-23.11-59.81,0-20.34,5.38-38.19,16-53.05a93.89,93.89,0,0,1,24.9-23.58,82,82,0,0,1-14.08-16.37,75.39,75.39,0,0,1-11.9-41.62c0-27.46,10.56-50.3,31.38-67.89C203.82,41.61,229.48,33,260,33m-.77,244.61c10.66-7,21-16.37,21-26.21a11.72,11.72,0,0,0-4-9.21c-2.3-2.2-8.42-7-24.22-16-15.69,9.23-24.22,18.41-24.22,26.17,0,2.54.53,5.6,4.49,9.13,3.12,2.78,10.32,7.76,26.92,16.08M260,22.5c-33,0-61,9.45-83.06,28.08-23.3,19.67-35.11,45.21-35.11,75.91,0,17.45,4.57,33.36,13.58,47.31a88.07,88.07,0,0,0,7,9.4A100,100,0,0,0,144.84,202c-11.92,16.68-18,36.58-18,59.15,0,27.64,8.83,50.27,26.24,67.28,12.24,12.19,33.23,25.29,64.18,40,28.36,13.46,37,19.49,39.41,21.46a8.75,8.75,0,0,1,1.31,1.27c0,.56,0,1-.06,1.41a27.06,27.06,0,0,1-5.44.47c-16.78,0-36.45-7.28-58.48-21.64l-.53-.33a35.31,35.31,0,0,0-18.63-5.65c-4.15,0-18.34,1.27-26.49,17.6l-14.94,29.64a34.1,34.1,0,0,0-5.07,18.18c0,11.79,6.06,22.16,18,30.8,9.83,7.1,22.43,12.18,32.32,15.81,25.44,9.34,49.76,14.07,72.31,14.07,32,0,60.05-10.63,83.29-31.59,24-21.62,36.12-48.24,36.12-79.11,0-18.34-4.62-35-13.74-49.44a91,91,0,0,0-9.08-12,105.25,105.25,0,0,0,16.91-18.92c11.35-16.45,17.11-35.53,17.11-56.72,0-25.21-8.22-46.9-24.44-64.47-11.39-12.4-32.2-26.14-63.61-42-15.89-8-26.39-13.5-33.31-17.22,6,.3,18.51,2.83,40.36,14.84l.25.14a37.38,37.38,0,0,0,17.82,4.9,30.23,30.23,0,0,0,27.35-16.83l14.24-27.3a33.59,33.59,0,0,0,5.4-18.05c0-6.85-2.43-19.84-18.68-30C320.91,31,291.62,22.5,260,22.5ZM238.31,252.64c0-.05,0-.13,0-.25,0-1.35,2.7-6.49,13.93-13.93C264,245.4,268,248.82,269,249.79c.72.69.72.71.72,1.61,0,2.63-3.07,7.67-11.36,14-12.94-6.77-17.59-10.36-19.07-11.68a5.73,5.73,0,0,1-1-1.05Z" transform="translate(-126.88 -22.5)"/><path class="cls-3" d="M357,243.69q0,48.52-51,73.9,39.81,22.15,39.81,63.2,0,35.58-28,60.84T251,466.89q-29.62,0-63.83-12.57T153,430.81a9,9,0,0,1,1.74-5.72L170.4,394q2-4,4.48-4a11.28,11.28,0,0,1,5.72,2q39.31,25.63,71.91,25.63,30.11,0,30.11-26.63,0-11.7-10.33-20.16t-44.42-24.63q-42.31-20.16-57.48-35.33-18.91-18.41-18.91-49.77,0-52.26,53.5-74.9-38.57-21.65-38.57-59.72,0-34.83,26.38-57.11T260,47.11q40.56,0,73.9,21.4,7.22,4.48,7.22,9.21a9.27,9.27,0,0,1-2,5.47L324.18,111.8a5.75,5.75,0,0,1-5.47,3.48,14,14,0,0,1-6.22-2Q279.89,95.38,259,95.38q-33.59,0-33.59,22.4a17.15,17.15,0,0,0,7.22,14.56q7.21,5.35,49.89,26.87t56.61,36.7Q357,215.32,357,243.69Zm-62.71,7.71A25.84,25.84,0,0,0,286,232q-8.34-8-34-21.9-38.32,20.16-38.32,42.3,0,11.45,9.21,19.66T260,293.7Q294.32,273.8,294.32,251.4Z" transform="translate(-126.88 -22.5)"/></g></svg>