<svg xmlns="http://www.w3.org/2000/svg" viewBox="0 0 361.56 468.35"><defs><style>.cls-1{fill:#fff;}.cls-2{fill:#4b4e52;}.cls-3{fill:#783140;}</style></defs><title>korrektheit</title><g id="Ebene_6" data-name="Ebene 6"><polygon class="cls-1" points="100.33 352.5 80.58 311.08 75.77 310 32.7 417.46 32.7 417.46 71.64 320.29 72.24 321.54 93.63 366.41 140.35 355.55 145.56 342.54 145.02 342.11 100.33 352.5"/><polygon class="cls-1" points="261.24 352.5 216.54 342.11 213.93 344.21 218.19 354.83 219.52 355.15 267.94 366.41 288.43 323.41 329.02 424.68 329.02 424.68 283.28 310.56 280.98 311.08 261.24 352.5"/><polygon class="cls-2" points="267.94 366.41 219.52 355.15 218.19 354.83 263.69 468.35 263.79 468.31 284.88 416.94 334.83 439.83 335.06 439.74 329.02 424.68 288.43 323.41 267.94 366.41"/><polygon class="cls-2" points="72.24 321.54 71.64 320.29 32.7 417.46 23.81 439.63 24.04 439.72 73.99 416.84 95.09 468.2 95.18 468.24 140.35 355.55 140.35 355.55 93.63 366.41 72.24 321.54"/><path class="cls-3" d="M416.22,208.09l20.08-41.26-36-28.47.18-45.89-44.78-10L336,41,291.28,51.41,255.52,22.65,219.76,51.41,175.06,41,155.32,82.44l-44.78,10,.18,45.89-36,28.47,20.07,41.26L74.74,249.35l36,28.46-.18,45.89,40,9,4.82,1.08,19.74,41.42,44.69-10.39.54.43,35.22,28.32,33.15-26.65,2.61-2.1L336,375.15l19.74-41.42,2.3-.52,42.47-9.52-.18-45.89,36-28.46ZM254.43,336.9A128.81,128.81,0,1,1,383.25,208.08,129,129,0,0,1,254.43,336.9Z" transform="translate(-74.74 -22.65)"/><circle class="cls-2" cx="179.78" cy="186.01" r="116.29"/><path class="cls-1" d="M254.43,79.27A128.81,128.81,0,1,0,383.25,208.08,129,129,0,0,0,254.43,79.27ZM254.51,325A116.29,116.29,0,1,1,370.8,208.66,116.29,116.29,0,0,1,254.51,325Z" transform="translate(-74.74 -22.65)"/></g></svg>