<svg xmlns="http://www.w3.org/2000/svg" viewBox="0 0 449.78 264"><defs><style>.cls-1{fill:#fff;}.cls-2{fill:#783140;}.cls-3{fill:#4b4e52;}</style></defs><title>externe_ressource</title><g id="Annotation"><path class="cls-1" d="M284.89,152.56c-63.76,0-115.63,43.68-115.63,107.44s51.87,107.44,115.63,107.44a12.26,12.26,0,0,1,3.07.4V152.16A12.26,12.26,0,0,1,284.89,152.56Z" transform="translate(-33 -128)"/><path class="cls-2" d="M284.89,367.44c-63.76,0-115.63-43.68-115.63-107.44s51.87-107.44,115.63-107.44a12.28,12.28,0,0,0,0-24.56c-73.14,0-133.36,49-139.63,119.72h-100a12.28,12.28,0,0,0,0,24.56h100C151.53,343,211.75,392,284.89,392a12.28,12.28,0,0,0,0-24.56Z" transform="translate(-33 -128)"/><path class="cls-3" d="M470.5,247.72H370.11a95.31,95.31,0,1,0,0,24.56H470.5a12.28,12.28,0,0,0,0-24.56Z" transform="translate(-33 -128)"/></g></svg>