<svg xmlns="http://www.w3.org/2000/svg" viewBox="0 0 401.04 436"><defs><style>.cls-1{fill:#fff;}.cls-2{fill:#783140;}.cls-3{fill:#4b4e52;}.cls-4{fill:none;stroke:#fff;stroke-linecap:round;stroke-miterlimit:10;stroke-width:9.4px;}</style></defs><title>flexibilitaet</title><g id="Annotation"><path class="cls-1" d="M430.58,344a96.17,96.17,0,0,0-5.73-24.12,51.9,51.9,0,0,0-6.37-11.18,41.37,41.37,0,0,1-4.77-8.07c-34.18-88.11-45.24-100.06-48.88-104-10.5-11.34-30.21-19-60.27-23.35-12.13-1.77-23.31-2.58-30.67-3-5.11-14.21-19.71-42.27-61.09-78.94-35.2-31.18-74-42.25-96.52-42.25h0a64.8,64.8,0,0,0-7.78.45,37.25,37.25,0,0,0-26.59,16c-8.9,12.65-12.59,32.35-11,58.55a241,241,0,0,0,4.41,32.94c.55,18.34.78,66.09-4.31,83.59-5.94,20.42-6.1,46.16-.48,78.68,4.59,26.54,12.28,52.89,17.9,72.13l1.16,4c6.94,23.83,24.09,39.61,54,49.66,27.6,9.28,67.87,14.47,130.56,16.84,4.48.17,9,.26,13.3.26,98.28,0,133.13-43.16,141.71-56.87a22.8,22.8,0,0,0,9.5-10.41,24.07,24.07,0,0,0,2.06-10,18.69,18.69,0,0,0,3.24-7c1.79-6.56-.51-14.37-7.37-25.19C434.44,349.25,432.2,346.15,430.58,344Zm1.95,30.94c-1,4.68-4.49,4.82-4.49,4.82s4.63,12.07-7.3,16.56l0,0,0,0,0,.08,0,.06-.07.13,0,.09-.1.18-.06.12-.13.23-.08.15-.15.26-.11.18-.18.3-.12.2-.21.35-.14.23-.24.38-.16.25-.27.42-.18.27-.3.45-.2.3-.33.48-.23.32-.37.51-.24.33-.41.55-.26.34-.45.58-.28.36-.49.61-.3.37-.53.64-.32.38-.59.68-.33.38-.64.72-.34.38-.7.75-.35.38-.76.79-.35.36-.87.86-.31.31-1,.94-.27.26L406,414.39l-.16.15c-1.83,1.66-3.86,3.37-6.1,5.1l-.25.19-1.45,1.1-.42.31-1.36,1-.55.38-1.32.91-.64.43-1.31.87-.72.46-1.31.83-.78.48-1.34.81-.83.49-1.37.79-.9.5-1.39.76-1,.51-1.43.74-1,.51-1.47.73-1.06.51-1.51.71-1.11.51-1.55.69-1.15.5L371,436l-1.2.49-1.66.66-1.24.48-1.71.64-1.29.47-1.77.62-1.32.45-1.84.6-1.36.43-1.91.58-1.39.42-2,.56-1.43.4-2.07.54-1.44.37-2.21.53-1.41.33-2.41.53-1.31.29-2.77.55-1.06.21q-3.89.74-8,1.37l-1.28.18-2.89.41-1.65.21-2.63.32-1.84.2-2.56.27-2,.18-2.53.22-2.1.15-2.54.18-2.18.12-2.58.13-2.26.09-2.63.09-2.33.05-2.67,0-2.41,0H286.6l-4,0-1.91,0c-2,0-4-.09-6.07-.17-119-4.49-162.43-19.46-173.66-58S69.59,287.78,82.35,243.93c6.86-23.58,4.74-88.33,4.74-88.33S66.88,66.53,109.92,61.29c.88-.11,1.79-.18,2.73-.24l.75,0c.87,0,1.75-.07,2.66-.07h1l1.6,0,.91,0,1.42.08,1,.08,1.4.12,1.09.12,1.4.16,1.14.15,1.42.21,1.18.19,1.46.26,1.2.22,1.52.31,1.2.25,1.64.38,1.12.26,2,.52.79.2q1.4.38,2.82.8l1.11.34,1.8.56,1.28.42,1.67.56,1.36.48,1.63.59,1.4.53,1.64.63,1.42.57,1.65.68,1.43.61,1.68.74,1.41.63,1.75.82,1.36.65,1.9.94,1.23.61c.84.43,1.68.87,2.52,1.32l.7.37q1.52.82,3,1.68l1.15.66,2,1.17,1.3.79,1.87,1.14,1.36.86,1.81,1.17,1.38.92L188,87l1.38,1,1.78,1.27,1.37,1,1.81,1.35,1.33,1L197.59,94l1.24,1c.69.55,1.37,1.12,2,1.69l1,.86q1.54,1.3,3.06,2.65c55.77,49.4,59.88,81.59,59.88,81.59s70.89.77,91.32,22.84c11,11.9,31.88,62.44,46.54,100.25,3,7.63,8.78,13,11.1,19.14a79.3,79.3,0,0,1,5.24,24.33S434.78,367.82,432.53,374.93Z" transform="translate(-54.98 -37.67)"/><path class="cls-2" d="M446.29,346.51c-1.61-2.53-3.25-4.91-4.65-6.86a108.65,108.65,0,0,0-6-23.82,62.08,62.08,0,0,0-7.67-13.66,35.08,35.08,0,0,1-3.51-5.7c-35-90.15-46.31-102.41-51.16-107.64-12.52-13.53-33.83-22.08-67-26.91-9-1.31-17.53-2.12-24.39-2.61-8-18-25-44.29-61.42-76.52A192.9,192.9,0,0,0,164,47.9c-16.74-6.6-33.69-10.23-47.72-10.23h0a76.09,76.09,0,0,0-9.17.53A48.44,48.44,0,0,0,72.52,59c-10.44,14.84-14.83,37-13,65.87a256,256,0,0,0,4.42,33.57c.66,23.6.19,65-3.89,79-6.44,22.13-6.69,49.56-.77,83.84,4.7,27.17,12.49,53.87,18.2,73.39l1.16,4a75,75,0,0,0,21.63,35.23c10.08,9.27,23.06,16.5,39.7,22.09,28.69,9.65,69.95,15,133.79,17.43,4.64.18,9.26.26,13.73.26,44.06,0,81.12-8.34,110.15-24.79,22-12.46,34-26.67,39.84-35.23a34.12,34.12,0,0,0,11.69-14A34.92,34.92,0,0,0,452,388.49a30.7,30.7,0,0,0,3-7.83C458.44,368,452.15,355.76,446.29,346.51ZM444,377.85a18.69,18.69,0,0,1-3.24,7,24.07,24.07,0,0,1-2.06,10,22.8,22.8,0,0,1-9.5,10.41c-8.59,13.71-43.44,56.87-141.71,56.87-4.34,0-8.82-.09-13.3-.26-62.69-2.37-103-7.56-130.56-16.84-29.88-10-47-25.82-54-49.66l-1.16-4c-5.62-19.24-13.32-45.59-17.9-72.13-5.62-32.52-5.46-58.26.48-78.68,5.09-17.5,4.86-65.25,4.31-83.59a241,241,0,0,1-4.41-32.94c-1.62-26.2,2.07-45.9,11-58.55a37.25,37.25,0,0,1,26.59-16,64.8,64.8,0,0,1,7.78-.45h0c22.53,0,61.32,11.07,96.52,42.25,41.39,36.67,56,64.72,61.09,78.94,7.36.37,18.53,1.19,30.67,3,30.06,4.37,49.78,12,60.27,23.35,3.63,3.93,14.7,15.88,48.88,104a41.37,41.37,0,0,0,4.77,8.07,51.9,51.9,0,0,1,6.37,11.18A96.17,96.17,0,0,1,430.58,344c1.62,2.16,3.85,5.26,6,8.67C443.45,363.48,445.75,371.29,444,377.85Z" transform="translate(-54.98 -37.67)"/><path class="cls-3" d="M413.82,324c-2.32-6.17-8.14-11.51-11.1-19.14-14.66-37.81-35.52-88.35-46.54-100.25-20.43-22.07-91.32-22.84-91.32-22.84s-4.12-32.19-59.88-81.59q-1.52-1.35-3.06-2.65l-1-.86c-.68-.57-1.36-1.13-2-1.69l-1.24-1-1.87-1.47-1.33-1-1.81-1.35-1.37-1-1.78-1.27L188,87l-1.79-1.21-1.38-.92-1.81-1.17-1.36-.86-1.87-1.14-1.3-.79-2-1.17-1.15-.66q-1.52-.86-3-1.68l-.7-.37c-.84-.45-1.68-.89-2.52-1.32l-1.23-.61-1.9-.94-1.36-.65-1.75-.82L161.44,72l-1.68-.74-1.43-.61L156.68,70l-1.42-.57-1.64-.63-1.4-.53-1.63-.59-1.36-.48-1.67-.56-1.28-.42-1.8-.56-1.11-.34q-1.42-.42-2.82-.8l-.79-.2-2-.52-1.12-.26L135,63.17l-1.2-.25-1.52-.31-1.2-.22-1.46-.26-1.18-.19L127,61.73l-1.14-.15-1.4-.16-1.09-.12-1.4-.12-1-.08L119.52,61l-.91,0-1.6,0h-1c-.91,0-1.79,0-2.66.07l-.75,0c-.93.06-1.85.13-2.73.24-43,5.24-22.83,94.32-22.83,94.32s2.12,64.75-4.74,88.33c-12.76,43.85,7.36,109.66,18.59,148.21s54.64,53.52,173.66,58c2.05.08,4.07.13,6.07.17l1.91,0,4,0h2.57l2.41,0,2.67,0,2.33-.05,2.63-.09,2.26-.09,2.58-.13,2.18-.12,2.54-.18,2.1-.15,2.53-.22,2-.18,2.56-.27,1.84-.2,2.63-.32,1.65-.21,2.89-.41,1.28-.18q4.12-.62,8-1.37l1.06-.21,2.77-.55,1.31-.29,2.41-.53,1.41-.33,2.21-.53,1.44-.37,2.07-.54,1.43-.4,2-.56,1.39-.42,1.91-.58,1.36-.43,1.84-.6,1.32-.45,1.77-.62,1.29-.47,1.71-.64,1.24-.48,1.66-.66L371,436l1.6-.67,1.15-.5,1.55-.69,1.11-.51,1.51-.71,1.06-.51,1.47-.73,1-.51,1.43-.74,1-.51,1.39-.76.9-.5,1.37-.79.83-.49,1.34-.81.78-.48,1.31-.83.72-.46,1.31-.87.64-.43,1.32-.91.55-.38,1.36-1,.42-.31,1.45-1.1.25-.19c2.24-1.73,4.27-3.44,6.1-5.1l.16-.15,1.16-1.08.27-.26,1-.94.31-.31.87-.86.35-.36.76-.79.35-.38.7-.75.34-.38.64-.72.33-.38.59-.68.32-.38.53-.64.3-.37.49-.61.28-.36.45-.58.26-.34.41-.55.24-.33.37-.51.23-.32.33-.48.2-.3.3-.45.18-.27.27-.42.16-.25.24-.38.14-.23.21-.35.12-.2.18-.3.11-.18.15-.26.08-.15.13-.23.06-.12.1-.18,0-.09.07-.13,0-.06,0-.08,0,0,0,0c11.93-4.49,7.3-16.56,7.3-16.56s3.51-.14,4.49-4.82c2.25-7.11-13.47-26.57-13.47-26.57A79.3,79.3,0,0,0,413.82,324Z" transform="translate(-54.98 -37.67)"/><path class="cls-2" d="M266.26,330.34a51.58,51.58,0,1,1,51.58-51.58A51.64,51.64,0,0,1,266.26,330.34Z" transform="translate(-54.98 -37.67)"/><path class="cls-1" d="M266.26,231.88a46.88,46.88,0,1,1-46.88,46.88,46.93,46.93,0,0,1,46.88-46.88m0-9.4a56.28,56.28,0,1,0,56.28,56.28,56.28,56.28,0,0,0-56.28-56.28Z" transform="translate(-54.98 -37.67)"/><path class="cls-4" d="M118.73,366.74s16.39,19.13,46.45,9.29,42.08-18,88-12,123.49,16.94,136.61,17.49,43,.33,43,.33" transform="translate(-54.98 -37.67)"/><circle class="cls-1" cx="214.56" cy="235.63" r="16.39"/></g></svg>