<svg xmlns="http://www.w3.org/2000/svg" viewBox="0 0 389.55 446.68"><defs><style>.cls-1{fill:#4b4e52;}.cls-2{fill:#fff;}.cls-3{fill:#783140;}</style></defs><title>manuelle_bearbeitung</title><g id="Annotation"><path class="cls-1" d="M447,295.62c-5.47-19.85-16.15-35.49-27.4-47.3,1.4-10.5,3.95-45.84-16-90.9s-41.78-63.27-48.48-68.06c-2-13.15-9.55-29.39-30.77-43.62-16.68-11.19-32-14.84-45.62-10.85-11,3.23-18.27,10.78-22.46,16.59-4.19-5.81-11.46-13.35-22.46-16.59-13.59-4-28.94-.34-45.62,10.85C167,60,159.49,76.21,157.45,89.36c-6.7,4.79-28.56,23-48.48,68.06s-17.36,80.4-16,90.9c-11.24,11.81-21.92,27.45-27.4,47.3C55.33,333,66.3,375.05,98.23,420.75c24,34.37,51.86,54,82.78,58.33a94.38,94.38,0,0,0,13.13.91c30.38,0,54-14.48,62.16-20.24,8.19,5.76,31.78,20.23,62.16,20.24a94.38,94.38,0,0,0,13.13-.91c30.92-4.34,58.77-24,82.78-58.33C446.3,375.05,457.27,333,447,295.62Z" transform="translate(-61.17 -33.32)"/><path class="cls-2" d="M289.06,33.32c10.69,0,22.28,4.15,34.6,12.42C344.88,60,352.4,76.21,354.43,89.36c6.7,4.79,28.56,23,48.48,68.06s17.36,80.4,16,90.9c11.24,11.81,21.92,27.45,27.4,47.3,10.29,37.33-.68,79.43-32.61,125.13-24,34.37-51.86,54-82.78,58.33a94.38,94.38,0,0,1-13.13.91c-30.38,0-54-14.48-62.16-20.24C247.4,465.52,223.81,480,193.43,480a94.39,94.39,0,0,1-13.13-.91c-30.92-4.34-58.77-24-82.78-58.33-31.93-45.7-42.9-87.8-32.61-125.13,5.47-19.85,16.15-35.49,27.4-47.3-1.4-10.5-3.95-45.84,16-90.9S150,94.15,156.74,89.36c2-13.15,9.55-29.39,30.77-43.62,12.32-8.27,23.91-12.42,34.6-12.42a38.94,38.94,0,0,1,11,1.57c11,3.23,18.27,10.78,22.46,16.59C259.77,45.66,267,38.12,278,34.89a38.92,38.92,0,0,1,11-1.57m-28.6,177.89a46.82,46.82,0,0,1,5-5.3c4.66-3.87,15.8-7.51,17.43-8.28a4.85,4.85,0,0,1,4.16,8.75c-5.73,2.73-12.59,4.65-15.4,7-2.29,1.9-7.71,8.8-11.21,13.53v99c4,6.55,26.14,38.78,69.28,38.78,33.87,0,52.82-32.93,53-33.25a4.84,4.84,0,1,1,8.46,4.73c-.84,1.5-20.17,35.28-56.74,38-.28,8.1-1.12,24.25-3.48,30.89-2.53,7.13-14.8,22.9-16.19,24.68a4.85,4.85,0,1,1-7.63-6c4.88-6.23,13.18-17.69,14.69-22,1.74-4.9,2.59-18.87,2.91-27.58-32.29-1.69-53.33-19.55-64.3-32.2V451.32c6.43,4.57,29,19,57.51,19a83,83,0,0,0,11.67-.82c28.1-4,53.7-22.24,76.08-54.27C435.89,372,446.4,332.68,437,298.28c-5-18.07-14.92-32.47-25.39-43.4a4.84,4.84,0,0,1-2.35-2.38c-16.44-16.26-30.07-20.81-30.35-20.94a4.84,4.84,0,0,1,4-8.83c1.61.72,11.78,3.63,27,17a138.2,138.2,0,0,0-.07-15.36c-.84-14.36-4.26-37-15.77-63-14.59-33-30.25-50.78-39.19-59-1.07,12.88-6.14,17.48-6.38,17.9a4.84,4.84,0,0,1-8.4-4.83c.48-.83,6.68-7.75,5.08-22.46a4.79,4.79,0,0,1-.07-.57c-1.45-11.89-8-25.95-26.83-38.55C307.59,46.62,297.8,43,289,43a29.22,29.22,0,0,0-8.19,1.14c-12.19,3.54-18.71,14.56-20.4,17.81V211.21m-93.57-88.6a4.83,4.83,0,0,1-4.19-2.42c-.24-.42-5.32-5-6.38-17.9-8.95,8.26-24.6,26-39.19,59-11.52,26.06-14.93,48.65-15.77,63a138.23,138.23,0,0,0-.07,15.36c15.23-13.32,25.95-16.49,27-17a4.84,4.84,0,0,1,4,8.83c-.29.13-13.91,4.68-30.35,20.94a4.84,4.84,0,0,1-2.35,2.38c-10.47,10.93-20.43,25.32-25.39,43.4-9.44,34.4,1.07,73.73,31.24,116.92,22.38,32,48,50.29,76.08,54.27a83,83,0,0,0,11.67.82c28.55,0,51.08-14.4,57.51-19V342c-11,12.65-32,30.51-64.3,32.2.32,8.71,1.17,22.68,2.91,27.58,1.51,4.26,9.81,15.72,14.69,22a4.85,4.85,0,0,1-7.63,6C195,428,182.73,412.19,180.2,405.06c-2.36-6.64-3.2-22.78-3.48-30.89-36.57-2.74-55.9-36.52-56.74-38a4.84,4.84,0,1,1,8.46-4.73c.18.33,19.13,33.25,53,33.25,43.14,0,65.24-32.23,69.28-38.78v-99c-3.5-4.72-8.92-11.62-11.21-13.53-2.81-2.33-9.68-4.26-15.4-7a4.85,4.85,0,1,1,4.16-8.75c1.63.77,12.77,4.41,17.43,8.28l1.33,1.42,1.47,1.56,2.23,2.32V62c-1.69-3.25-8.21-14.27-20.4-17.81A29.22,29.22,0,0,0,222.13,43c-8.75,0-18.54,3.6-29.22,10.77-18.78,12.6-25.38,26.65-26.83,38.55a4.79,4.79,0,0,1-.07.57c-1.6,14.71,4.61,21.63,5.08,22.46a4.85,4.85,0,0,1-4.21,7.25M289.06,37.4a50.15,50.15,0,0,0-14.14,2c-8,2.34-15.23,11.58-20.21,16-5-4.39-7.76-14-15.73-16.31-4.55-1.34-12.06-4.37-16.9-4.37-12.91,0-15.87,2.17-30,11.65-22.83,15.32-30.67,30.47-33.79,44-10.48,8.5-29.88,24.4-48.06,65.54C91.72,197.78,93,233.4,94.21,248.5,81.42,263,73.4,280.8,68.58,298.32,57.37,339,66.71,369.51,100.62,418c25.84,37,43.18,51,77.27,55.82a106,106,0,0,0,14.66,1c27.53,0,49.87-10.63,62.16-18.1,12.29,7.47,34.63,18.09,62.16,18.1a106,106,0,0,0,14.67-1c34.09-4.78,40.86-11.25,69.11-43.58,33.91-48.53,50.6-92.27,39.4-132.93-4.83-17.51-12.29-35.15-25.08-49.63,1.22-15.1,1.16-49.66-17.36-91.57C379.42,115,362.48,100,352,91.5,348.89,78,344.25,64.28,321.42,49,307.28,39.48,302,37.4,289.06,37.4ZM271.53,64.95c2-3.12,6.21-8.36,12.42-10.16a18.29,18.29,0,0,1,5.1-.7c6.51,0,14.26,3,23.05,8.89,13.1,8.79,20.49,19,22,30.43,0,.36.07.67.11.91.43,4.16.26,9.91-2.82,14.19a14.57,14.57,0,0,0-.9,1.37,15.91,15.91,0,0,0,27,16.88,29.82,29.82,0,0,0,2.12-2.89c7.28,9.34,16,22.91,24.4,41.93a176.21,176.21,0,0,1,14.23,51.83,71.69,71.69,0,0,0-10.55-4.94l-.37-.14a15.91,15.91,0,0,0-12.92,29.09c.07,0,.36.16.84.34,2,.74,12.43,5,25.28,17.4a15.94,15.94,0,0,0,4.1,4.17c10.72,11.46,18,24.13,21.75,37.65,8.53,31.07-1.44,67.29-29.64,107.65C376.09,438.28,353,455,328.09,458.51a72.21,72.21,0,0,1-10.12.71c-20.54,0-37.71-8.53-46.44-13.87V367q3.65,2.58,7.49,4.83a98.19,98.19,0,0,0,34.15,12.32c-.56,8-1.27,12.58-1.73,14-1,2.32-6.7,10.84-13,18.87a15.91,15.91,0,0,0,25.05,19.63c4.42-5.65,15-19.66,17.91-27.8,1.73-4.87,3-13.25,3.68-25,14-3,27.22-10.18,38.74-21a96.65,96.65,0,0,0,17-21.19,15.91,15.91,0,0,0-27.73-15.62c-.46.78-16.63,27.67-43.39,27.67-33.29,0-52.11-22.27-58.22-31v-92a105.32,105.32,0,0,1,7.14-8.64,57.44,57.44,0,0,1,5.64-2.42c2.33-.91,5-2,7.52-3.16a15.91,15.91,0,0,0-13.53-28.81l-1.53.59c-1.71.65-3.48,1.33-5.24,2.06V64.95ZM177.1,93.41C178.59,82,186,71.77,199.08,63c8.79-5.9,16.54-8.89,23.05-8.89a18,18,0,0,1,5.1.7c6.21,1.8,10.4,7,12.42,10.16V190.21c-1.76-.73-3.53-1.41-5.24-2.06l-1.53-.59a15.79,15.79,0,0,0-6.68-1.47,15.91,15.91,0,0,0-6.84,30.28c2.55,1.21,5.19,2.25,7.52,3.17a57.47,57.47,0,0,1,5.64,2.42,105.3,105.3,0,0,1,7.14,8.64v92c-6.11,8.75-24.93,31-58.22,31-26.7,0-42.85-26.77-43.39-27.67a15.91,15.91,0,0,0-27.73,15.62,96.68,96.68,0,0,0,17,21.19c11.52,10.87,24.75,18,38.74,21,.72,11.73,2,20.11,3.68,25,2.89,8.14,13.49,22.15,17.91,27.8a15.91,15.91,0,1,0,25.06-19.63c-6.29-8-12-16.56-13-18.87-.46-1.37-1.17-6-1.73-14a98.19,98.19,0,0,0,34.15-12.32q3.84-2.25,7.49-4.83v78.39c-8.73,5.34-25.9,13.87-46.44,13.87a72.21,72.21,0,0,1-10.11-.71c-24.94-3.53-48-20.24-68.56-49.65C86.34,368.5,76.37,332.29,84.9,301.22c3.71-13.53,11-26.19,21.75-37.65a15.94,15.94,0,0,0,4.1-4.17C123.6,247,134,242.73,136,242c.48-.18.76-.31.85-.35a15.91,15.91,0,0,0-12.82-29.13l-.17.06a76.63,76.63,0,0,0-10.87,5.1,176.2,176.2,0,0,1,14.23-51.86c8.4-19,17.12-32.59,24.4-41.93a29.84,29.84,0,0,0,2.12,2.89,15.91,15.91,0,0,0,26.95-16.88,14.56,14.56,0,0,0-.9-1.37c-3.08-4.28-3.25-10-2.82-14.2,0-.24.08-.55.11-.91Z" transform="translate(-61.17 -33.32)"/><path class="cls-3" d="M446.27,295.62c-5.47-19.85-16.15-35.49-27.4-47.3,1.4-10.5,3.95-45.84-16-90.9s-41.78-63.27-48.48-68.06c-2-13.15-9.55-29.39-30.77-43.62C307,34.54,291.64,30.89,278,34.89c-11,3.23-18.27,10.78-22.46,16.59-4.19-5.81-11.46-13.35-22.46-16.59-13.59-4-28.94-.34-45.62,10.85C166.3,60,158.78,76.21,156.74,89.36c-6.7,4.79-28.56,23-48.48,68.06s-17.36,80.4-16,90.9c-11.24,11.81-21.92,27.45-27.4,47.3-10.29,37.33.68,79.43,32.61,125.13,24,34.37,51.86,54,82.78,58.33a94.38,94.38,0,0,0,13.13.91c30.38,0,54-14.48,62.16-20.24,8.19,5.76,31.78,20.23,62.16,20.24a94.38,94.38,0,0,0,13.13-.91c30.92-4.34,58.77-24,82.78-58.33C445.59,375.05,456.56,333,446.27,295.62ZM248.48,208.89,247,207.33l-1.33-1.42c-4.66-3.87-15.8-7.51-17.43-8.28a4.85,4.85,0,1,0-4.16,8.75c5.73,2.73,12.59,4.65,15.4,7,2.29,1.9,7.71,8.8,11.21,13.53v99c-4,6.55-26.14,38.78-69.28,38.78-33.87,0-52.82-32.93-53-33.25a4.84,4.84,0,1,0-8.46,4.73c.84,1.5,20.17,35.28,56.74,38,.28,8.1,1.12,24.25,3.48,30.89,2.53,7.13,14.8,22.9,16.19,24.68a4.85,4.85,0,1,0,7.63-6c-4.88-6.23-13.18-17.69-14.69-22-1.74-4.9-2.59-18.87-2.91-27.58,32.29-1.69,53.33-19.55,64.3-32.2V451.32c-7.28,5.18-35.23,23-69.18,18.16-28.1-4-53.7-22.24-76.08-54.27C75.29,372,64.78,332.68,74.22,298.29c5-18.07,14.92-32.47,25.39-43.4A4.84,4.84,0,0,0,102,252.5c16.44-16.26,30.07-20.81,30.35-20.94a4.85,4.85,0,0,0-4-8.83c-1.1.5-11.82,3.67-27,17a138.23,138.23,0,0,1,.07-15.36c.84-14.36,4.26-37,15.77-63,14.59-33,30.25-50.78,39.19-59,1.07,12.88,6.14,17.48,6.38,17.9a4.84,4.84,0,0,0,8.4-4.83c-.48-.83-6.68-7.75-5.08-22.46a4.81,4.81,0,0,0,.07-.57c1.45-11.89,8-25.95,26.83-38.55,14.14-9.49,26.72-12.73,37.4-9.63C242.5,47.69,249,58.71,250.71,62V211.21ZM405.72,415.2c-22.38,32-48,50.29-76.08,54.27-33.95,4.82-61.89-13-69.18-18.16V342c11,12.65,32,30.51,64.3,32.2-.32,8.71-1.17,22.68-2.91,27.58-1.51,4.26-9.81,15.72-14.69,22a4.85,4.85,0,0,0,7.63,6c1.39-1.78,13.66-17.56,16.19-24.68,2.36-6.64,3.2-22.78,3.48-30.89,36.57-2.74,55.9-36.52,56.74-38a4.84,4.84,0,1,0-8.46-4.73c-.18.33-19.13,33.25-53,33.25-43.14,0-65.24-32.23-69.28-38.78v-99c3.5-4.72,8.92-11.62,11.21-13.53,2.81-2.33,9.68-4.26,15.4-7a4.85,4.85,0,1,0-4.16-8.75c-1.63.77-12.77,4.41-17.43,8.28a46.82,46.82,0,0,0-5,5.3V62c1.69-3.25,8.21-14.27,20.4-17.81,10.68-3.1,23.26.14,37.4,9.63,18.78,12.6,25.38,26.65,26.83,38.55a4.81,4.81,0,0,0,.07.57c1.6,14.71-4.61,21.63-5.08,22.46a4.84,4.84,0,0,0,8.4,4.83c.24-.42,5.32-5,6.38-17.9,8.95,8.26,24.6,26,39.19,59,11.52,26.06,14.93,48.65,15.77,63a138.23,138.23,0,0,1,.07,15.36c-15.27-13.36-25.44-16.26-27-17a4.85,4.85,0,0,0-4,8.83c.29.13,13.91,4.68,30.35,20.94a4.84,4.84,0,0,0,2.35,2.38C422,265.81,432,280.21,437,298.29,446.4,332.68,435.89,372,405.72,415.2Z" transform="translate(-61.17 -33.32)"/><path class="cls-3" d="M212.68,317.77a9.61,9.61,0,0,1-2.55-.34c-3.62-1-15.67-5.69-21.64-9.88-2.94-2.07-7-6.43-12.05-13-12.31,8-23.08,9-27.41,9h-.86a9.59,9.59,0,0,1,.37-19.18h.33c1.27,0,12.42-.29,22.87-10.43,8.41-8.15,12.67-20.83,12.67-37.67,0-45.63-33.87-48-35.32-48.1A9.6,9.6,0,0,1,149.6,169h.53c.12,0,13.5.8,28.75,12.42,9.45-11.68,20-25.83,22.18-31.86,3.32-9.13,4-35.08,4-47.52a9.6,9.6,0,0,1,19.19-.13c.06,9.24-.12,40.48-5.12,54.21-3.65,10-17.44,27.83-26.78,39.2,7.51,11,11.31,24.72,11.31,40.94,0,18.57-4.38,33.76-13,45.21,4.39,5.75,7.79,9.57,8.95,10.38a58.29,58.29,0,0,0,15.68,7.07,9.6,9.6,0,0,1-2.54,18.85Z" transform="translate(-61.17 -33.32)"/><path class="cls-2" d="M214.62,97.13a4.85,4.85,0,0,1,4.84,4.81c0,4.49.15,38.86-4.83,52.55-3.92,10.77-21.77,32.77-28.34,40.65,7.27,9.21,12.58,22.35,12.58,41.11,0,19.11-4.82,34.25-14.29,45.09,4.23,5.75,9.75,12.64,12.24,14.39A63.32,63.32,0,0,0,214,303.5a4.84,4.84,0,1,1-2.57,9.34c-3.14-.86-14.73-5.37-20.16-9.19-3.91-2.75-10-10.51-13.77-15.63-13.31,10.15-25,10.76-28.43,10.76h-.67a4.84,4.84,0,0,1,.19-9.69h.36c1.72,0,14.43-.4,26.15-11.77,9.37-9.08,14.12-22.9,14.12-41.08,0-49.84-38-52.75-39.8-52.85a4.85,4.85,0,0,1,.22-9.69h.27c.32,0,14.54,1.18,29.68,14.35,8.17-9.88,23-28.78,26-36.91,3.72-10.21,4.33-37.44,4.25-49.17a4.84,4.84,0,0,1,4.81-4.88h0m0-9.5h-.1a14.34,14.34,0,0,0-14.25,14.44c.12,17.45-1.11,38.81-3.68,45.86-1.49,4.1-8.83,14.69-18.62,27-14.87-9.93-27.48-10.69-27.63-10.69l-.75,0a14.35,14.35,0,0,0-.75,28.67,33.48,33.48,0,0,1,15.79,6.17c10,7.28,15,19.79,15,37.19,0,15.51-3.78,27-11.23,34.26-9.15,8.87-18.88,9.08-19.52,9.09h-.38a14.34,14.34,0,0,0-.54,28.68l1,0c4.33,0,14.48-.84,26.3-7.5,6.27,7.7,9.29,9.82,10.44,10.63,6.5,4.58,19.15,9.49,23.11,10.58a14.34,14.34,0,0,0,7.61-27.66A55,55,0,0,1,202.36,288a61.07,61.07,0,0,1-5.84-6.69c7.87-11.87,11.86-27,11.86-45.07,0-15.77-3.43-29.39-10.2-40.61,9.39-11.61,21.79-28,25.39-37.91,5.27-14.48,5.47-46.42,5.41-55.86a14.38,14.38,0,0,0-14.34-14.25Z" transform="translate(-61.17 -33.32)"/><path class="cls-3" d="M298.49,317.77A9.6,9.6,0,0,1,296,298.92a58.34,58.34,0,0,0,15.68-7.07c1.16-.82,4.56-4.63,8.95-10.39-8.64-11.45-13-26.63-13-45.21,0-16.23,3.8-30,11.31-40.94-9.34-11.38-23.13-29.17-26.78-39.2-5-13.74-5.18-45-5.12-54.21a9.6,9.6,0,0,1,19.19.13c-.08,12.44.64,38.38,4,47.52,2.19,6,12.73,20.18,22.18,31.86C347.55,169.8,360.92,169,361.07,169h.51a9.6,9.6,0,0,1,.48,19.18c-1.44.08-35.32,2.48-35.32,48.1,0,16.84,4.26,29.52,12.67,37.67,10.45,10.13,21.61,10.43,22.84,10.43h.36a9.59,9.59,0,0,1,.37,19.18h-.85c-4.34,0-15.11-.94-27.41-9-5.07,6.55-9.12,10.91-12.06,13-6,4.2-18,8.89-21.63,9.88A9.61,9.61,0,0,1,298.49,317.77Z" transform="translate(-61.17 -33.32)"/><path class="cls-2" d="M296.59,97.13A4.84,4.84,0,0,1,301.4,102c-.08,11.73.53,39,4.25,49.17,3,8.13,17.8,27,26,36.91,15.15-13.17,29.37-14.33,29.68-14.35h.27a4.85,4.85,0,0,1,.22,9.69c-1.8.1-39.8,3-39.8,52.85,0,18.18,4.75,32,14.12,41.08,11.72,11.37,24.43,11.77,26.15,11.77h.36a4.84,4.84,0,0,1,.19,9.69h-.67c-3.39,0-15.12-.61-28.43-10.76-3.79,5.12-9.86,12.87-13.77,15.63-5.43,3.82-17,8.32-20.16,9.19a4.84,4.84,0,0,1-2.57-9.34,63.32,63.32,0,0,0,17.15-7.77c2.48-1.75,8-8.64,12.24-14.39-9.48-10.84-14.29-26-14.29-45.09,0-18.76,5.31-31.91,12.58-41.11-6.57-7.89-24.42-29.89-28.34-40.65-5-13.69-4.86-48.06-4.83-52.55a4.85,4.85,0,0,1,4.84-4.81h0m0-9.5h-.06a14.38,14.38,0,0,0-14.34,14.25c-.06,9.44.14,41.39,5.41,55.86,3.59,9.88,16,26.3,25.39,37.91-6.77,11.22-10.2,24.84-10.2,40.61,0,18.08,4,33.2,11.86,45.07a61.07,61.07,0,0,1-5.84,6.69,55,55,0,0,1-14.13,6.33A14.34,14.34,0,1,0,302.3,322c4-1.09,16.6-6,23.11-10.58,1.15-.81,4.17-2.93,10.44-10.63,11.82,6.66,22,7.5,26.3,7.5l1,0a14.34,14.34,0,0,0-.56-28.68h-.38c-.67,0-10.38-.23-19.52-9.09-7.45-7.22-11.23-18.75-11.23-34.26,0-17.4,5.06-29.91,15-37.19a33.48,33.48,0,0,1,15.8-6.17,14.35,14.35,0,0,0-.76-28.67l-.8,0c-.11,0-12.72.76-27.58,10.69-9.79-12.32-17.12-22.91-18.62-27-2.57-7.05-3.79-28.41-3.68-45.86a14.34,14.34,0,0,0-14.25-14.44Z" transform="translate(-61.17 -33.32)"/></g></svg>