<svg xmlns="http://www.w3.org/2000/svg" viewBox="0 0 434 434"><defs><style>.cls-1{fill:#4b4e52;}.cls-2{fill:#fff;}.cls-3{fill:#783140;}</style></defs><title>unveraenderlichkeit</title><g id="Annotation"><polygon class="cls-1" points="127.4 434 0 307.02 0 127.19 127.4 0 307.23 0 434 127.19 434 307.02 307.23 434 127.4 434"/><polygon class="cls-2" points="132.09 422.63 11.37 302.3 11.37 131.89 132.09 11.37 302.5 11.37 422.63 131.89 422.63 302.3 302.5 422.63 132.09 422.63"/><polygon class="cls-3" points="135.5 414.37 19.63 298.88 19.63 135.31 135.5 19.63 299.06 19.63 414.37 135.31 414.37 298.88 299.06 414.37 135.5 414.37"/><path class="cls-2" d="M162.63,282q0,15.54-10.1,25.19t-26.46,9.65a81.9,81.9,0,0,1-22.58-3.6q-12.44-3.6-12.43-6.46a10.19,10.19,0,0,1,.33-1.88l5.56-14.4q.57-1.47,1.47-1.47a3.8,3.8,0,0,1,1.55.49q15,8.18,25.6,8.18,15,0,15.05-13.91a14.75,14.75,0,0,0-3.52-10.22q-3.36-3.68-19.06-11.53Q103,254.51,97.44,247.59t-5.56-18q0-14.89,9.94-23.64t26.79-8.75a67,67,0,0,1,20.94,3.64q11,3.64,11,6.91a4.59,4.59,0,0,1-.49,1.39L154,221.79q-.57,1.23-1.47,1.23-.57,0-6.54-3a37.08,37.08,0,0,0-16.77-4.34q-7,0-11.12,3.27a10.8,10.8,0,0,0-4.09,8.92q0,6.3,6.54,10.55,2.37,1.55,17.59,9.24,12.92,6.46,18.69,14.56T162.63,282Z" transform="translate(-40 -40)"/><path class="cls-2" d="M250.42,201.42a8.08,8.08,0,0,1-.33,2l-3.52,13.25a3.46,3.46,0,0,1-3.68,2.86H222.28v91.45q0,2.37-.57,2.94t-2.94.57H202.48q-2.37,0-2.94-.57t-.57-2.94V219.5h-21.1q-2.37,0-2.94-.53t-.57-2.82V203.05q0-2.37.61-2.94t2.9-.57h69.2Q250.42,199.54,250.42,201.42Z" transform="translate(-40 -40)"/><path class="cls-2" d="M338.67,255.65q0,61.68-42,61.68-40.9,0-40.9-60.86,0-35.09,14.72-49.41,10.71-10.39,27.48-10.39,17.91,0,28.3,11.94Q338.67,222.85,338.67,255.65Zm-24.13,1.88q0-42.78-17.59-42.78-17.1,0-17.1,42.45,0,42,17.26,42Q314.54,299.25,314.54,257.53Z" transform="translate(-40 -40)"/><path class="cls-2" d="M422.94,231q0,17-10.43,27.28t-27.77,10.27h-8.51v42.37q0,2.94-1.55,3.35a8.63,8.63,0,0,1-2,.16h-16q-2.37,0-2.94-.57t-.57-2.94V203.05q0-2.37.57-2.94t2.94-.57h27.16q18.65,0,26.26,4.66Q422.94,212.05,422.94,231Zm-22.09,1.31q0-8.83-4-12.27t-14.11-3.44h-6.54v33h4.66q11,0,15.5-3.84T400.85,232.34Z" transform="translate(-40 -40)"/></g></svg>