<svg xmlns="http://www.w3.org/2000/svg" viewBox="0 0 399.63 459.6"><defs><style>.cls-1{fill:#4b4e52;}.cls-2{fill:#fff;}.cls-3{fill:#783140;}.cls-4{fill:none;stroke:#fff;stroke-linecap:round;stroke-linejoin:round;stroke-width:11px;}</style></defs><title>innovation</title><g id="Annotation"><path class="cls-1" d="M293.33,472.78l-.09.09a59.93,59.93,0,0,1-83.15-.09h0V453h83.25Z" transform="translate(-52 -30)"/><polygon class="cls-1" points="241.33 411.47 241.33 391.96 158.08 391.96 158.08 411.47 241.24 411.47 241.33 411.47"/><rect class="cls-2" x="158.08" y="411.47" width="83.25" height="11.49"/><rect class="cls-2" x="158.08" y="380.47" width="83.25" height="11.49"/><path class="cls-1" d="M183.52,104.83a6.45,6.45,0,0,1-8.76-2.54l-21.46-39A6.45,6.45,0,0,1,164.6,57l21.46,39A6.45,6.45,0,0,1,183.52,104.83Z" transform="translate(-52 -30)"/><path class="cls-1" d="M131.57,153.22a6.45,6.45,0,0,1-8.9,2L85,131.33A6.45,6.45,0,0,1,92,120.44l37.62,23.87A6.45,6.45,0,0,1,131.57,153.22Z" transform="translate(-52 -30)"/><path class="cls-1" d="M109.35,220.65a6.45,6.45,0,0,1-6.84,6L58,223.88A6.45,6.45,0,0,1,58.85,211l44.47,2.8A6.45,6.45,0,0,1,109.35,220.65Z" transform="translate(-52 -30)"/><path class="cls-1" d="M394.28,221.82a6.45,6.45,0,0,1,6-6.84l44.47-2.8a6.45,6.45,0,1,1,.81,12.87l-44.47,2.8A6.45,6.45,0,0,1,394.28,221.82Z" transform="translate(-52 -30)"/><path class="cls-1" d="M372.62,154.21a6.45,6.45,0,0,1,2-8.9l37.62-23.87a6.45,6.45,0,1,1,6.91,10.89L381.52,156.2A6.45,6.45,0,0,1,372.62,154.21Z" transform="translate(-52 -30)"/><path class="cls-1" d="M321.06,105.39a6.45,6.45,0,0,1-2.54-8.76l21.46-39a6.45,6.45,0,0,1,11.3,6.21l-21.46,39A6.45,6.45,0,0,1,321.06,105.39Z" transform="translate(-52 -30)"/><path class="cls-1" d="M252.37,87.45A6.45,6.45,0,0,1,245.92,81V36.45a6.45,6.45,0,0,1,12.9,0V81A6.45,6.45,0,0,1,252.37,87.45Z" transform="translate(-52 -30)"/><path class="cls-3" d="M251.78,99.77c-8,0-119,3.14-119,119,0,54.35,33.89,88.22,48.21,115.43,6.27,11.91,9.28,30.55,9.28,51.22S208.9,411,209.56,411H294c2.25,0,19.31-5,19.31-25.61s3-39.07,9.28-51c14.31-27.21,48.21-61.2,48.21-115.54C370.8,103,259.78,99.77,251.78,99.77Z" transform="translate(-52 -30)"/><polyline class="cls-4" points="178.09 381.05 178.09 275.52 133.65 228.22 266.37 228.28 221.25 275.52 221.18 381.05"/></g></svg>