<svg xmlns="http://www.w3.org/2000/svg" viewBox="0 0 472 421"><defs><style>.cls-1{fill:#fff;}.cls-2{fill:#783140;}.cls-3{fill:#4b4e52;}</style></defs><title>hohe_last</title><g id="Annotation"><path class="cls-1" d="M350.19,95.8a5.5,5.5,0,0,0-10.81-.32L293.16,309.64l-61-121.29a5.5,5.5,0,0,0-9.36-.76l-52.47,72.26-34.71-39.24a5.5,5.5,0,0,0-8.93,1L104.77,261H20v11h88a5.5,5.5,0,0,0,4.81-2.83l19.72-35.46,34.1,38.55a5.5,5.5,0,0,0,8.57-.41l51.19-70.5L290.34,328.5a5.5,5.5,0,0,0,4.91,3,5.61,5.61,0,0,0,.7,0,5.5,5.5,0,0,0,4.68-4.3l43.23-200.33,21.71,140.48A5.5,5.5,0,0,0,371,272H492V261H375.72Z" transform="translate(-20 -46)"/><path class="cls-2" d="M365.56,267.34,343.86,126.86,300.63,327.19a5.5,5.5,0,0,1-4.68,4.3,5.61,5.61,0,0,1-.7,0,5.5,5.5,0,0,1-4.91-3L226.39,201.35l-51.19,70.5a5.5,5.5,0,0,1-8.57.41l-34.1-38.55-19.72,35.46A5.5,5.5,0,0,1,108,272H20V446.5c0,11,9,20.5,20,20.5H472c11,0,20-9.5,20-20.5V272H371A5.5,5.5,0,0,1,365.56,267.34Z" transform="translate(-20 -46)"/><path class="cls-3" d="M472,46H40A20.06,20.06,0,0,0,20,66V261h84.77l21.93-39.42a5.5,5.5,0,0,1,8.93-1l34.71,39.24,52.47-72.26a5.5,5.5,0,0,1,9.36.76l61,121.29L339.37,95.48a5.5,5.5,0,0,1,10.81.32L375.72,261H492V66A20.06,20.06,0,0,0,472,46Z" transform="translate(-20 -46)"/></g></svg>