<svg xmlns="http://www.w3.org/2000/svg" viewBox="0 0 457.7 413.08"><defs><style>.cls-1{fill:#fff;}.cls-2{fill:#783140;}.cls-3{fill:#4b4e52;}</style></defs><title>verbesserungsbedarf</title><g id="Annotation"><path class="cls-1" d="M54.25,446.77A16.39,16.39,0,0,1,40,422.35L241.71,63.49a16.39,16.39,0,0,1,28.57,0L472,422.35a16.39,16.39,0,0,1-14.29,24.42Z" transform="translate(-27.15 -44.41)"/><path class="cls-2" d="M256,65.85a5.61,5.61,0,0,1,4.94,2.89L462.69,427.6a5.67,5.67,0,0,1-4.94,8.45H54.25a5.67,5.67,0,0,1-4.94-8.45L251.06,68.74A5.61,5.61,0,0,1,256,65.85m0-21.44a27.15,27.15,0,0,0-23.63,13.83L30.62,417.09a27.11,27.11,0,0,0,23.63,40.4h403.5a27.11,27.11,0,0,0,23.63-40.4L279.63,58.23A27.15,27.15,0,0,0,256,44.41Z" transform="translate(-27.15 -44.41)"/><path class="cls-3" d="M293.07,194.82a19.73,19.73,0,1,1-19.73-19.73,19.73,19.73,0,0,1,19.73,19.73" transform="translate(-27.15 -44.41)"/><path class="cls-3" d="M269.79,416.86H427.07a8.08,8.08,0,0,0,6.42-13L378.63,332.3S372.28,321,358.89,321s-25.37,14.09-25.37,14.09l-22.66,28-.3.35a8.08,8.08,0,0,1-6,2.65h-4.07a8.08,8.08,0,0,0-6,2.71L263.75,403.4a8.08,8.08,0,0,0,6,13.45" transform="translate(-27.15 -44.41)"/><path class="cls-3" d="M181.43,291.27l-51,95.52a4.73,4.73,0,0,0-.32,3.71l5.36,16.37a4.74,4.74,0,0,0,8.68.77l48.45-89.91a4.74,4.74,0,0,1,8.12-.39l20.45,30.57a4.75,4.75,0,0,1,.8,2.64V396.7a4.74,4.74,0,0,0,1.66,3.61l11,9.43a4.74,4.74,0,0,0,7.82-3.61V345.71a4.75,4.75,0,0,0-.7-2.49l-21.81-35.41a4.75,4.75,0,0,0-1.74-1.66l-30.29-16.79a4.74,4.74,0,0,0-6.48,1.91" transform="translate(-27.15 -44.41)"/><path class="cls-3" d="M309.05,351.75l-51.59-42.42,5.37-83.22a3.91,3.91,0,0,0-1.12-3l-18.64-18.85a3.9,3.9,0,0,0-2.77-1.16H189.11a3.9,3.9,0,0,0-3.39,2l-22.16,38.83a3.9,3.9,0,0,0-.26,3.32l4.41,11.63a3.9,3.9,0,0,0,7.09.46l3.33-6.22,10.36,8.56,3.25-6.61-10.16-8.4,11.77-22a3.9,3.9,0,0,1,3.54-2.06l15,.37a3.9,3.9,0,0,1,3.35,5.72l-25.32,48a3.9,3.9,0,0,0,1.6,5.25l27,14.56a3.9,3.9,0,0,0,5.35-1.71l11-22.34a3.9,3.9,0,0,1,7.4,1.77L242,296.53l-7.11-5.88-3.14,6.7,10.15,8.38-.15,11.84a3.9,3.9,0,0,0,1.34,3l7,6.1a3.9,3.9,0,0,0,6.45-2.69l.38-5.82,47.59,39.12Z" transform="translate(-27.15 -44.41)"/></g></svg>