<svg xmlns="http://www.w3.org/2000/svg" viewBox="0 0 436.33 443"><defs><style>.cls-1{fill:none;}.cls-2{fill:#fff;}.cls-3{fill:#4b4e52;}.cls-4{fill:#783140;}</style></defs><title>abloesung</title><g id="Annotation"><path class="cls-1" d="M322.74,266.37c-24,24.39-57,57.83-70,71.09Z" transform="translate(-34.39 -32)"/><path class="cls-1" d="M99.2,69.55A23.76,23.76,0,0,0,72.64,91.43a24,24,0,0,0,7,20.13l106.86,108,34.53-35.26L114.94,77.08A24.34,24.34,0,0,0,99.2,69.55Z" transform="translate(-34.39 -32)"/><path class="cls-1" d="M335.49,223.35,438.18,117.81c8.68-8.91,12.32-18.89,11.14-30.51-1.05-10.37-5.58-18.69-13.85-25.44A36.11,36.11,0,0,0,412,53.18a41.55,41.55,0,0,0-4.2.22c-8.83.89-17.16,5.41-25.48,13.79l-315.4,322c-8.65,8.88-12.29,18.87-11.11,30.5a36.17,36.17,0,0,0,13.85,25.45c8.26,6.74,17.32,9.51,27.7,8.46,8.82-.89,17.15-5.41,25.47-13.81L232.41,327.88C236.46,323.77,330.22,228.55,335.49,223.35Z" transform="translate(-34.39 -32)"/><path class="cls-2" d="M251.8,338.37l8.87,8.87,15.17-15.49L379.51,436.54c8.51,8.51,17.06,13.1,26.1,14,10.64,1,19.89-1.85,28.3-8.79s13-15.49,14-26.12c1.15-11.91-2.63-22.12-11.55-31.19L329.82,276.65l15.13-15.44-8.57-8.66-13.64,13.83-70,71.09-.89.9m68.29-51.79L427,394.61a24,24,0,0,1,7,20.13,23.76,23.76,0,0,1-26.56,21.88,24.34,24.34,0,0,1-15.74-7.53L285.56,321.84Z" transform="translate(-34.39 -32)"/><path class="cls-3" d="M407.43,436.63A23.76,23.76,0,0,0,434,414.75a24,24,0,0,0-7-20.13l-106.86-108-34.53,35.26L391.69,429.1A24.34,24.34,0,0,0,407.43,436.63Z" transform="translate(-34.39 -32)"/><path class="cls-2" d="M246,158.94l-15.17,15.49L127.13,69.64c-8.51-8.51-17.06-13.1-26.1-14-10.64-1-19.89,1.85-28.3,8.79s-13,15.49-14,26.12c-1.15,11.91,2.63,22.12,11.55,31.19L176.81,229.53,161.69,245l8.38,8.62,84.31-86.08ZM186.55,219.6l-106.86-108a24,24,0,0,1-7-20.13A23.76,23.76,0,0,1,99.2,69.55a24.34,24.34,0,0,1,15.74,7.53L221.08,184.34Z" transform="translate(-34.39 -32)"/><path class="cls-2" d="M435.47,61.85A36.11,36.11,0,0,0,412,53.18a41.55,41.55,0,0,0-4.2.22c-8.83.89-17.16,5.41-25.48,13.79l-315.4,322c-8.65,8.88-12.29,18.87-11.11,30.5a36.17,36.17,0,0,0,13.85,25.45c8.26,6.74,17.32,9.51,27.7,8.46,8.82-.89,17.15-5.41,25.47-13.81L232.41,327.88c4-4.11,97.81-99.33,103.08-104.54L438.18,117.81c8.68-8.91,12.32-18.89,11.14-30.51C448.27,76.92,443.74,68.6,435.47,61.85Zm-5.69,45L110.12,434a23.85,23.85,0,0,1-15.41,7.48,23.36,23.36,0,0,1-26.19-21.43,23.68,23.68,0,0,1,6.81-19.86L395,73a23.89,23.89,0,0,1,15.42-7.46A23.39,23.39,0,0,1,436.59,87,23.72,23.72,0,0,1,429.79,106.84Z" transform="translate(-34.39 -32)"/><path class="cls-4" d="M470.39,85.16c-1.62-16-8.86-29.38-21.53-39.72s-27.21-14.74-43.23-13.11c-13.71,1.39-26.63,8.1-38.42,20L254.38,167.52,170.07,253.6,51.74,374.4c-13.12,13.48-18.85,29.44-17,47.43,1.62,16,8.87,29.39,21.52,39.72C67.19,470.49,79.55,475,93.07,475a63.53,63.53,0,0,0,6.39-.33c13.72-1.39,26.63-8.11,38.42-20L247.52,342.72l4.28-4.35.89-.9c13.06-13.26,46-46.71,70-71.09l13.64-13.83c7.92-8,13.28-13.44,14-14.13l103-105.83C466.48,119.1,472.21,103.15,470.39,85.16Zm-32.21,32.65L335.49,223.35c-5.28,5.2-99,100.42-103.08,104.54L122.79,439.79c-8.32,8.4-16.65,12.92-25.47,13.81-10.38,1.05-19.44-1.71-27.7-8.46A36.17,36.17,0,0,1,55.78,419.7c-1.18-11.63,2.46-21.61,11.11-30.5l315.4-322c8.32-8.39,16.65-12.9,25.48-13.79a41.55,41.55,0,0,1,4.2-.22,36.11,36.11,0,0,1,23.51,8.67c8.27,6.75,12.8,15.07,13.85,25.44C450.5,98.92,446.86,108.9,438.18,117.81Z" transform="translate(-34.39 -32)"/><path class="cls-4" d="M428.07,70.6a23.12,23.12,0,0,0-17.67-5.1A23.89,23.89,0,0,0,395,73L75.32,400.22a23.68,23.68,0,0,0-6.81,19.86A23.36,23.36,0,0,0,94.71,441.5,23.85,23.85,0,0,0,110.12,434L429.79,106.84A23.72,23.72,0,0,0,436.59,87,23.31,23.31,0,0,0,428.07,70.6Z" transform="translate(-34.39 -32)"/><path class="cls-3" d="M221.08,184.34,114.94,77.08A24.34,24.34,0,0,0,99.2,69.55,23.76,23.76,0,0,0,72.64,91.43a24,24,0,0,0,7,20.13l106.86,108Z" transform="translate(-34.39 -32)"/><path class="cls-3" d="M70.22,121.78c-8.92-9.07-12.7-19.27-11.55-31.19,1-10.63,5.62-19.18,14-26.12s17.67-9.82,28.3-8.79c9,.87,17.59,5.45,26.1,14L230.79,174.43,246,158.94,142.5,54.35c-12.09-12.09-25.34-18.9-39.39-20.26q-3.16-.3-6.24-.3c-14,0-26.69,4.68-37.93,14C46,58.38,38.68,72.1,37.09,88.51c-1.78,18.43,4.17,34.74,17.69,48.49L161.64,245l0,0,15.13-15.44Z" transform="translate(-34.39 -32)"/><path class="cls-3" d="M345,261.16l0,0-15.13,15.44L436.41,384.4c8.92,9.07,12.7,19.27,11.55,31.19-1,10.63-5.62,19.18-14,26.12s-17.67,9.82-28.3,8.79c-9-.87-17.59-5.45-26.1-14L275.85,331.75l-15.17,15.49L364.12,451.81h0c12.09,12.09,25.34,18.9,39.39,20.26q3.16.3,6.24.3c14,0,26.69-4.68,37.93-14,12.91-10.64,20.25-24.35,21.83-40.77,1.78-18.43-4.17-34.74-17.69-48.49Z" transform="translate(-34.39 -32)"/></g></svg>