<svg xmlns="http://www.w3.org/2000/svg" viewBox="0 0 144.67 456.44"><defs><style>.cls-1{fill:#783140;}.cls-2{fill:#4b4e52;}.cls-3{fill:#fff;}</style></defs><title>projektrelevanz</title><g id="Annotation"><path class="cls-1" d="M253.9,377.32q18.7,0,32.38,13.82A45.66,45.66,0,0,1,300,424.47a44.65,44.65,0,0,1-13.82,32.92q-13.82,13.68-32.79,13.68a47.18,47.18,0,0,1-47.15-47.15A44.54,44.54,0,0,1,220,390.87q13.82-13.55,33.87-13.55m0-13.65c-17,0-31.61,5.87-43.42,17.45a57.92,57.92,0,0,0-17.91,42.8,60.83,60.83,0,0,0,60.8,60.8c16.31,0,30.57-5.93,42.39-17.63a58,58,0,0,0,17.87-42.62A59.06,59.06,0,0,0,296,381.54c-11.74-11.86-25.9-17.87-42.08-17.87" transform="translate(-180.76 -28.28)"/><path class="cls-2" d="M276.62,400.76a31.23,31.23,0,0,0-23-9.8,33,33,0,0,0-24,9.6,31.57,31.57,0,0,0-9.8,23.43,33.21,33.21,0,0,0,56.66,23.72,31.65,31.65,0,0,0,9.8-23.34,32.36,32.36,0,0,0-9.7-23.62" transform="translate(-180.76 -28.28)"/><path class="cls-3" d="M288.19,455.51a45.62,45.62,0,0,0,12.25-31.1v0A49.19,49.19,0,0,0,299,413.57c-.06-.25-.22-.51-.28-.76,0-.08-.1-.16-.12-.24a44.32,44.32,0,0,0-3.84-10,48.06,48.06,0,0,0-8.45-11.41c-.6-.61-1.22-1.19-1.84-1.76a44.92,44.92,0,0,0-30.72-12.08h-.1a48.06,48.06,0,0,0-33.89,13.5c-9.08,8.91-12.92,20.37-14.21,33.16v0a48,48,0,0,0,47.72,47.47h0a45,45,0,0,0,25.91-8.11,52.17,52.17,0,0,0,7-5.84c.63-.63,1.36-1.37,1.95-2m-34.91,1.92A33.45,33.45,0,0,1,219.86,424a31.57,31.57,0,0,1,9.8-23.43,33,33,0,0,1,24-9.6,31.23,31.23,0,0,1,23,9.8,32.36,32.36,0,0,1,9.7,23.62,33.29,33.29,0,0,1-33,33" transform="translate(-180.76 -28.28)"/><path class="cls-3" d="M285.3,55.57q13.66,0,12.78,7.13l-.6,5.65L284.11,313.48q-.6,8-2.82,10.1t-10,2.08H234.79q-8.32,0-10.25-1.93T222,313.48L208,63.89q0-5.64,3.27-7.13,2.37-1.18,8.91-1.19Zm0-13.65H220.23c-6.62,0-11.2.78-14.81,2.53s-11,6.72-11,19.44q0,.38,0,.76l14,249.58v.21c.5,7,1.63,14.09,6.51,18.95,5.22,5.21,13,5.91,19.88,5.91h36.55c6.11,0,13.82-.65,19.28-5.76s6.64-12.83,7.11-19.05c0-.09,0-.19,0-.28L311.09,69.44l.55-5.21a18.52,18.52,0,0,0-4.45-14.62c-6.78-7.68-18.16-7.68-21.89-7.68Z" transform="translate(-180.76 -28.28)"/><path class="cls-1" d="M317.43,40.58c-7.2-8.16-18-12.3-32.12-12.3H220.23c-8.77,0-15.16,1.19-20.7,3.86-11.76,5.6-18.78,17.47-18.78,31.75,0,.52,0,1,0,1.54l14,249.56,0,.3v.11c.65,9.15,2.41,19.6,10.49,27.65,8.78,8.76,20.39,9.89,29.51,9.89h36.55c7.94,0,19.55-1,28.6-9.44s10.8-20,11.4-28v-.09l0-.46L324.7,70.53l.51-4.8A32,32,0,0,0,317.43,40.58Zm-5.79,23.65-.55,5.21L297.74,314.22c0,.09,0,.18,0,.28-.47,6.22-1.7,14-7.11,19.05s-13.17,5.76-19.28,5.76H234.79c-6.9,0-14.66-.7-19.88-5.91-4.88-4.86-6-12-6.51-18.95v-.21l-14-249.58q0-.38,0-.76c0-12.72,7.52-17.78,11-19.44s8.19-2.53,14.81-2.53H285.3c3.74,0,15.11,0,21.89,7.68A18.52,18.52,0,0,1,311.64,64.23Z" transform="translate(-180.76 -28.28)"/><path class="cls-2" d="M285.3,55.57H220.23q-6.54,0-8.91,1.19Q208,58.25,208,63.89l14,249.58q.59,8.32,2.53,10.25t10.25,1.93h36.55q7.72,0,10-2.08t2.82-10.1L297.48,68.35l.6-5.65Q299,55.57,285.3,55.57Z" transform="translate(-180.76 -28.28)"/></g></svg>