<svg xmlns="http://www.w3.org/2000/svg" viewBox="0 0 428.7 428.69"><defs><style>.cls-1{fill:#fff;}.cls-2{fill:#783140;}.cls-3{fill:#4b4e52;}</style></defs><title>zuverlaessigkeit</title><g id="Annotation"><path class="cls-1" d="M229.16,333.95l41.47-41.47.3-.3a84.21,84.21,0,0,0-5.62-12.42l-35.7,35.7A41,41,0,0,1,229.16,333.95Z" transform="translate(-42 -41.31)"/><path class="cls-1" d="M220.76,241.65l-.48.48-42.62,42.62a41,41,0,0,1,19.2-1.17l36.22-36.22A89.58,89.58,0,0,0,220.76,241.65Z" transform="translate(-42 -41.31)"/><path class="cls-1" d="M332.09,231l-38.91,38.91h0A95,95,0,0,1,281,264.1L314.12,231A39,39,0,0,0,332.09,231Z" transform="translate(-42 -41.31)"/><path class="cls-1" d="M242.48,219.93l.35-.35,39.9-39.9a40.64,40.64,0,0,0-.52,18.55l-33.84,33.84A101.52,101.52,0,0,1,242.48,219.93Z" transform="translate(-42 -41.31)"/><path class="cls-2" d="M332.25,148.2l-99.16,99.16-36.22,36.22-48,48a22.85,22.85,0,0,0,32.31,32.31l48.41-48.41,35.7-35.7,99.25-99.25a22.85,22.85,0,0,0-32.31-32.31Z" transform="translate(-42 -41.31)"/><path class="cls-3" d="M250.73,381.51a85,85,0,0,0,19.9-89l-41.47,41.47-.25.25a40.39,40.39,0,0,1-10.79,18.3l-62.86,62.86a40.9,40.9,0,0,1-25.46,11.87,40,40,0,0,1-43.75-40.49,41,41,0,0,1,12.09-28.5L161,295.39c4.9-4.9,10.36-8.66,16.55-10.54l.1-.1,43-43a85,85,0,0,0-85,14.79l-.73.62q-.85.74-1.68,1.5c-.68.63-1.35,1.27-2,1.92l-.68.65L67,324.75l-.18.18A84.83,84.83,0,0,0,67,445h0a85.34,85.34,0,0,0,19.7,14.7l.87.49c.46.24.92.45,1.38.69a84.64,84.64,0,0,0,98.12-15.75Z" transform="translate(-42 -41.31)"/><path class="cls-3" d="M325.62,66.15,262,129.8a85,85,0,0,0-19.49,90.12l40.26-40.26c1.89-6.19,5.64-11.65,10.54-16.55l62.86-62.86a40.41,40.41,0,0,1,57.36-.07l-.18-.18a40.41,40.41,0,0,1-.06,57.36l-62.86,62.86A40.39,40.39,0,0,1,332.09,231l-38.92,38.92a85,85,0,0,0,89-19.9l63.65-63.65a84.84,84.84,0,0,0-.16-120.12l0,0A84.83,84.83,0,0,0,325.62,66.15Z" transform="translate(-42 -41.31)"/></g></svg>