<svg xmlns="http://www.w3.org/2000/svg" viewBox="0 0 330.91 456"><defs><style>.cls-1{fill:none;}.cls-2{fill:#783140;}.cls-3{fill:#4b4e52;}.cls-4{fill:#fff;}</style></defs><title>sicherheit</title><g id="Annotation"><path class="cls-1" d="M302.18,73.49H215.77A37.67,37.67,0,0,0,178.24,111v71.64H339.71V111A37.67,37.67,0,0,0,302.18,73.49Z" transform="translate(-94.09 -28)"/><path class="cls-2" d="M302.18,28H215.77a83.21,83.21,0,0,0-83,83v71.64h45.49V111a37.67,37.67,0,0,1,37.53-37.52h86.41A37.67,37.67,0,0,1,339.71,111v71.64H385.2V111A83.21,83.21,0,0,0,302.18,28Z" transform="translate(-94.09 -28)"/><path class="cls-3" d="M412.95,182.65H107.28c-7.13,0-13.19,5.27-13.19,12.4V470.83A13.38,13.38,0,0,0,107.28,484H412.95c7.13,0,12.05-6,12.05-13.17V195.06C425,187.93,420.08,182.65,412.95,182.65Z" transform="translate(-94.09 -28)"/><path class="cls-4" d="M306,300.06c0-25.14-20.82-45.52-46.49-45.52s-46.49,20.38-46.49,45.52A45.44,45.44,0,0,0,239.19,341a13,13,0,0,1,7.29,11.71v45.59a13.06,13.06,0,0,0,13.06,13.06h0a13.06,13.06,0,0,0,13.06-13.06V352.7A13,13,0,0,1,279.89,341,45.44,45.44,0,0,0,306,300.06Z" transform="translate(-94.09 -28)"/></g></svg>