<svg xmlns="http://www.w3.org/2000/svg" viewBox="0 0 391.65 452"><defs><style>.cls-1{fill:#fff;}.cls-2{fill:#4b4e52;}.cls-3{fill:#783140;}</style></defs><title>zeitbeschraenkung</title><g id="Annotation"><path class="cls-1" d="M259,150.9c-83.24,0-151,67.72-151,151s67.72,151,151,151,151-67.72,151-151S342.28,150.9,259,150.9Z" transform="translate(-62.51 -31)"/><path class="cls-2" d="M265.1,299.61,265,182.7c0-3.57-2.9-6.94-6.47-6.94h0c-3.57,0-6.47,3.37-6.47,6.95L252,295l-113.1-.07v0a6.52,6.52,0,0,0,.28,13L259,307.86h0a6.27,6.27,0,0,0,6.47-6.23A5.17,5.17,0,0,0,265.1,299.61Z" transform="translate(-62.51 -31)"/><path class="cls-3" d="M283.24,301.85A24.2,24.2,0,1,1,259,277.66,24.19,24.19,0,0,1,283.24,301.85Z" transform="translate(-62.51 -31)"/><path class="cls-2" d="M417.13,177.15a10.78,10.78,0,0,0,15.24.62l18.31-16.88a10.78,10.78,0,0,0,.62-15.24L428.8,121.24a10.78,10.78,0,0,0-15.24-.62l-18.31,16.88a10.78,10.78,0,0,0-.62,15.24l4,4.39-14.41,14a180.54,180.54,0,0,0-115-50.08l.66-47.63-21.56-.3-.66,48a180.53,180.53,0,0,0-113.28,49.46l-15.65-13.71,4.19-4.54a11.3,11.3,0,0,0-.65-16L104,119.44a11.3,11.3,0,0,0-16,.65L65.49,144.52a11.31,11.31,0,0,0,.65,16l18.31,16.88a11.22,11.22,0,0,0,7.65,3h.47a11.23,11.23,0,0,0,7.85-3.63l3.7-4,15.53,13.6A180.32,180.32,0,0,0,77.9,301.85C77.9,401.74,159.16,483,259,483s181.15-81.26,181.15-181.15a180.31,180.31,0,0,0-41.26-115L413.29,173ZM259,452.81c-83.24,0-151-67.72-151-151s67.72-151,151-151,151,67.72,151,151S342.28,452.81,259,452.81Z" transform="translate(-62.51 -31)"/><rect class="cls-3" x="166.45" y="0.01" width="59.27" height="43.1" rx="10.78" ry="10.78"/></g></svg>