<svg xmlns="http://www.w3.org/2000/svg" viewBox="0 0 279.31 455.19"><defs><style>.cls-1{fill:#783140;}.cls-2{fill:#fff;}.cls-3{fill:#4b4e52;}</style></defs><title>ungewissheit</title><g id="Annotation"><path class="cls-1" d="M249.48,376.65q18.69,0,32.37,13.81a45.64,45.64,0,0,1,13.68,33.31,44.64,44.64,0,0,1-13.81,32.91q-13.81,13.67-32.77,13.68a47.16,47.16,0,0,1-47.13-47.13,44.52,44.52,0,0,1,13.81-33q13.81-13.54,33.86-13.54m0-13.64c-17,0-31.6,5.87-43.4,17.44a57.9,57.9,0,0,0-17.91,42.78A60.8,60.8,0,0,0,248.94,484c16.3,0,30.55-5.93,42.37-17.62a58,58,0,0,0,17.86-42.6,59,59,0,0,0-17.62-42.91C279.8,369,265.65,363,249.48,363Z" transform="translate(-126.46 -28.81)"/><path class="cls-2" d="M356,76.28c-23.73-22.45-55.24-33.83-93.65-33.83-23.67,0-49,4.27-75.26,12.69-24.43,7.83-47,17.57-47,35.64A30.45,30.45,0,0,0,142.17,102l15.15,40,.09.23c5.16,12.92,14.79,14.32,18.69,14.32,3.42,0,7.09-1.1,15.12-4.54,24-10.3,44-15.52,59.42-15.52,41.4,0,41.4,19.44,41.4,28.79,0,10.49-4.43,18.93-13.95,26.55-11,8.82-28.4,16-51.67,21.21,0,0,0,0,0,0-21.66,5.08-23.93,20.4-23.93,26.75v73.39a42.6,42.6,0,0,0,.91,10.21s0,.26,0,.3c1.23,4.7,6.09,15.8,24.91,15.8h41.57a34.59,34.59,0,0,0,10-1.26c5.67-1.59,14.82-7.12,14.82-25.05v-30c19.49-6.7,34.63-13.54,45.71-20.8,34.13-22.25,51.72-54.74,51.72-96.55C392.13,129.08,380,98.93,356,76.28ZM333.25,251c-11.66,7.65-29.46,15.1-51.55,22.36v39.85c0,6.88-1.77,10.65-5.21,11.6a29,29,0,0,1-6.65.42H228.28c-6.88,0-11-1.66-12-5.3a26.37,26.37,0,0,1-.82-6.73V239.85c0-6.88,4.74-11.37,13.72-13.47,50.84-11.47,76.38-31.82,76.38-61.06q0-42.42-55-42.43-26.09,0-64.76,16.63c-5.35,2.29-8.58,3.44-9.73,3.44q-3.73,0-6-5.73L154.88,97.08a16.79,16.79,0,0,1-1.14-6.31q0-10.6,37.55-22.65t71.09-12q52.46,0,84.28,30.1t31.85,79.69Q378.52,221.5,333.25,251Z" transform="translate(-126.46 -28.81)"/><path class="cls-3" d="M272.18,400.08a31.21,31.21,0,0,0-22.94-9.79,33,33,0,0,0-24,9.6,31.56,31.56,0,0,0-9.79,23.42A33.19,33.19,0,0,0,272.09,447a31.64,31.64,0,0,0,9.79-23.33A32.35,32.35,0,0,0,272.18,400.08Z" transform="translate(-126.46 -28.81)"/><path class="cls-2" d="M283.75,454.8A45.61,45.61,0,0,0,296,423.72v0a49.24,49.24,0,0,0-1.41-10.81c-.06-.25-.22-.51-.28-.75,0-.08-.1-.16-.12-.24a44.34,44.34,0,0,0-3.83-10,48,48,0,0,0-8.45-11.41c-.6-.61-1.22-1.19-1.84-1.76a44.89,44.89,0,0,0-30.71-12.07h-.1a48,48,0,0,0-33.87,13.5c-9.08,8.9-12.91,20.36-14.21,33.14v0a48,48,0,0,0,47.7,47.45h0a44.93,44.93,0,0,0,25.89-8.1,52.22,52.22,0,0,0,7-5.84C282.44,456.19,283.16,455.45,283.75,454.8Zm-34.89,1.92a33.43,33.43,0,0,1-33.41-33.41,31.56,31.56,0,0,1,9.79-23.42,33,33,0,0,1,24-9.6,31.21,31.21,0,0,1,22.94,9.79,32.35,32.35,0,0,1,9.7,23.61,33.27,33.27,0,0,1-33,33Z" transform="translate(-126.46 -28.81)"/><path class="cls-1" d="M262.39,42.45c38.41,0,69.92,11.38,93.65,33.83,23.95,22.65,36.09,52.8,36.09,89.6,0,41.81-17.32,74.3-51.45,96.55-11.08,7.26-26,14.1-45.44,20.8v30c0,17.94-9.42,23.29-15.09,24.88a37.64,37.64,0,0,1-10.3,1.09H228.28c-18.81,0-23.71-10.93-24.95-15.62l0-.13a42.08,42.08,0,0,1-1-10.21V239.85c0-6.35,2.34-21.68,24-26.75l.11,0c23.26-5.25,40.65-12.38,51.67-21.21C287.6,184.24,292,175.8,292,165.31c0-9.34,0-28.79-41.4-28.79-15.44,0-35.43,5.22-59.42,15.52-8,3.44-11.7,4.54-15.12,4.54-3.9,0-13.53-1.39-18.69-14.32l-.09-.23-15.15-40a30.46,30.46,0,0,1-2.07-11.24c0-18.07,22.6-27.81,47-35.64,26.26-8.42,51.59-12.69,75.26-12.69m0-13.64c-25.09,0-51.81,4.49-79.42,13.34-11.1,3.56-25.21,8.54-36,15.54-13.64,8.88-20.55,20-20.55,33.09a44.05,44.05,0,0,0,3,16.15l15.12,39.95.18.46c8.48,21.24,26.14,22.9,31.36,22.9,6.18,0,11.75-1.9,20.49-5.64,22-9.44,40.65-14.42,54-14.42,18.6,0,24.29,4.29,25.87,6.13,1.75,2,1.88,5,1.88,9,0,4.58-1.07,9.68-8.83,15.9-9.26,7.41-25.21,13.83-46.14,18.55l-.21,0c-16.21,3.8-24.49,12.4-28.59,18.94a39.78,39.78,0,0,0-6,21.09v73.39a55,55,0,0,0,1.4,13.55l.07.28c3.27,12.45,15,25.78,38.14,25.78h41.57a50.24,50.24,0,0,0,14-1.61,32.5,32.5,0,0,0,16.53-10.84c5.62-6.93,8.46-16.07,8.46-27.16v-20.4c16.16-6,29.07-12.3,39.28-19,18.91-12.32,33.41-27.78,43.08-45.93s14.53-39,14.53-62c0-40.7-13.58-74.18-40.35-99.51-26.35-24.92-61-37.56-103-37.56Z" transform="translate(-126.46 -28.81)"/><path class="cls-3" d="M378.49,165.88q0,55.62-45.29,85.14-17.49,11.47-51.6,22.36v39.85q0,10.32-5.16,11.75a26.56,26.56,0,0,1-6.59.57H228.28q-10.32,0-11.75-5.45a30.39,30.39,0,0,1-.57-6.88V239.85q0-10.32,13.47-13.47,76.25-17.2,76.25-61.06,0-42.42-55-42.43-26.09,0-64.79,16.63-8,3.44-9.75,3.44-3.73,0-6-5.73L154.89,97.08a16.79,16.79,0,0,1-1.15-6.31q0-10.6,37.55-22.65t71.09-12q52.46,0,84.28,30.1T378.49,165.88Z" transform="translate(-126.46 -28.81)"/></g></svg>