<svg xmlns="http://www.w3.org/2000/svg" viewBox="0 0 430 402.41"><defs><style>.cls-1{fill:#4b4e52;}.cls-2{fill:#fff;}.cls-3{fill:#783140;}</style></defs><title>verstaendlichkeit</title><g id="Annotation"><path class="cls-1" d="M249.83,351.85c-.36-1.45-.45-2.89-.83-4.32-.45-1.69-.9-3.39-1.37-5-.62-2.2-1.3-4.49-2.13-7.19l-.24-.75c-.2-.64-.4-1.28-.61-1.91-1.54-4.83-3.23-9.6-5-14.16-.56-1.47-1.18-2.94-1.77-4.4l30.86-37.72H219.85c-1.54-2.33-3.12-4.59-4.71-6.75l-.64-.84-.26-.34c-1.53-2-2.94-3.81-4.31-5.44a123.16,123.16,0,0,0-11.24-11.8l-.23-.21.54-.77.17-.25a69.85,69.85,0,0,0,11.53-30.46,69,69,0,0,0,.56-8.2q0-1.37,0-2.74a69.14,69.14,0,0,0-23-49.29h0c-.83-.75-1.69-1.47-2.55-2.17l-.82-.65q-.93-.73-1.89-1.44l-.92-.67q-1-.72-2-1.39l-.75-.5q-1.41-.9-2.85-1.73l-.57-.31q-1.18-.66-2.39-1.28l-1-.49q-1-.51-2.11-1l-1-.45q-1.24-.54-2.51-1l-.6-.24c-1-.39-2.14-.75-3.2-1.09-.07,0-.27-.05-.27-.07h0a71.38,71.38,0,0,0-16.44-3.11c-1.45-.09-3-.14-4.41-.14a72.45,72.45,0,0,0-13,1.21V67.53A16.68,16.68,0,0,1,146,51H450.2A16.5,16.5,0,0,1,467,67.53V259.35a16.9,16.9,0,0,1-16.8,17h-123l44.05,53.77v21.73Z" transform="translate(-37 -51)"/><path class="cls-1" d="M248.79,416.89q-.3-3.8-.67-7.56c-.09-.9-.23-1.84-.34-2.73s-.21-1.79-.31-2.68c-1.85.3-3.64.59-5.47.86-1.22.18-2.42.37-3.65.53l-1.85.24c-3.08.39-6.24.71-9.57.94s-6.84.35-10.63.35a73.52,73.52,0,0,1-34.47-8.22,82.21,82.21,0,0,1-16-11A103.65,103.65,0,0,1,157,379q-1.68-1.86-3.3-3.8-2.43-2.92-4.73-6-1.53-2.06-3-4.2c-3.44-5-6.66-10.23-9.69-15.66q-.65-1.16-1.29-2.34-1.28-2.35-2.51-4.73l-1.22-2.39q-1.82-3.6-3.56-7.25c-2.7-5.68-5.25-11.44-7.7-17.17q-1-2.46-2.07-4.91c-2.39-5.72-4.67-11.38-6.9-16.9-4.11-10.19-8.07-19.92-12-28.42-.84-.67-1.67-1.35-2.48-2.06l-1,1c-.22.21-.39.48-.61.7a135.75,135.75,0,0,0-18.45,23.7q-2,3.29-4,6.71t-3.73,7q-1.81,3.54-3.49,7.19T62,316.76c-.58,1.38-1.16,2.77-1.72,4.17l-8.58,24.9-.19.62c-.1.35-.19.7-.29,1-.32,1.1-.62,2.21-.93,3.31-7.13,25.8-10.74,51.9-12.37,73.25q-.16,2.15-.3,4.24c-.19,2.79-.34,5.48-.46,8.07q-.09,1.94-.16,3.8c33.61,8.53,71.37,13.24,109.61,13.24,37.35,0,70.37-5.08,103.34-13.24-.11-5.31-.32-10.51-.62-15.64Q249.09,420.68,248.79,416.89Z" transform="translate(-37 -51)"/><path class="cls-2" d="M247.65,342.48c-.62-2.2-1.3-4.49-2.14-7.19l-.23-.75c-.2-.64-.39-1.28-.59-1.91-1.54-4.83-3.2-9.6-4.93-14.16q-.84-2.21-1.71-4.4l-8.63,10.5q2.1,5.68,4,11.65c.27.85.53,1.71.79,2.56.7,2.28,1.4,4.58,2.06,6.92q.68,2.41,1.33,4.86l.34,1.28h12.21q-.55-2.18-1.12-4.32C248.58,345.84,248.12,344.14,247.65,342.48Z" transform="translate(-37 -51)"/><path class="cls-2" d="M214.5,268.77l-.26-.34c-1.53-2-2.94-3.81-4.31-5.44a123.16,123.16,0,0,0-11.24-11.8l-.23-.21.54-.77.17-.25a69.85,69.85,0,0,0,11.53-30.46,69,69,0,0,0,.56-8.2q0-1.37,0-2.74a69.14,69.14,0,0,0-23-49.29h0c-.83-.75-1.69-1.47-2.55-2.17l-.82-.65q-.93-.73-1.89-1.44l-.92-.67q-1-.72-2-1.39l-.75-.5q-1.41-.9-2.85-1.73l-.57-.31q-1.18-.66-2.39-1.28l-1-.49q-1-.51-2.11-1l-1-.45q-1.24-.54-2.51-1l-.6-.24c-1-.39-2.14-.75-3.2-1.09-.07,0-.27-.05-.27-.07h0a71.38,71.38,0,0,0-16.44-3.11c-1.45-.09-3-.14-4.41-.14a72.45,72.45,0,0,0-13,1.21v12.08a59.11,59.11,0,0,1,16.61-1.35,57.46,57.46,0,0,1,17.87,4.09l1.29.53,1,.45,1.26.59,1,.49,1.23.65,1,.53,1.21.71.93.56,1.21.78.88.58c.41.28.82.58,1.22.87l.8.58c.44.33.88.68,1.31,1l.65.51q1,.79,1.9,1.63a57.31,57.31,0,0,1,19.06,40.88q0,1.15,0,2.31a57.75,57.75,0,0,1-10,32c-.28.41-.56.82-.85,1.23-.7,1-1.43,1.91-2.19,2.83l-.19.23c-.73.88-1.49,1.73-2.27,2.56l-.29.32q-1.16,1.22-2.39,2.36l-.34.32q-1.24,1.14-2.54,2.2l-.33.26q-1.33,1.07-2.73,2.07l-.25.18c-1,.68-2,1.34-3,2l-.09.05a57.77,57.77,0,0,1-6.6,3.5l-.33.15-1.53.65-.65.25c-.56.22-1.13.44-1.7.64l-1.2.41-1.23.4-1.3.37c-.56.16-1.12.31-1.69.45l-1.22.28c-.66.15-1.33.29-2,.41l-1.22.22h-.07l-1.08.17-1.54.2-.78.09-.81.07-1.54.12-.79,0-.69,0-1.45,0H142c-1.07,0-2.15,0-3.22-.1l-.61,0q-1.42-.09-2.83-.26l-.59-.07q-1.49-.19-3-.45l-.51-.09-.12,0-.12,0c-.92-.18-1.84-.37-2.75-.59l-.36-.08-.88-.24-.65-.18-.58-.16-1.44-.45-.67-.21q-2.14-.72-4.2-1.6h0c-.64-.27-1.28-.56-1.91-.86l-.52-.25a57.51,57.51,0,0,1-9.12-5.49l-1.53-1.22c-.7-.56-1-.78-1.71-1.36l-.51-.44-7.59,9c.79.69,1.66,1.4,2.48,2.06,3.93,8.49,7.85,18.18,12,28.37,2.23,5.52,4.52,11.19,6.9,16.9q1,2.45,2.07,4.91c2.44,5.74,5,11.49,7.7,17.17q1.74,3.65,3.56,7.25l1.22,2.39q1.23,2.38,2.51,4.73.64,1.17,1.29,2.34c3,5.43,6.25,10.68,9.69,15.66q1.48,2.13,3,4.2,2.3,3.09,4.73,6,1.62,1.94,3.3,3.8a103.67,103.67,0,0,0,8.83,8.68,82.19,82.19,0,0,0,16,11,73.66,73.66,0,0,0,34.5,8.23c3.8,0,7.3-.13,10.63-.35s6.48-.55,9.56-.93l1.84-.24,3.66-.52c1.82-.27,3.64-.56,5.49-.86L246,392.2l-.38.06A171.2,171.2,0,0,1,216.29,395c-22.82,0-41.21-10.47-57.89-32.94-15.43-20.79-26.62-48.49-36.48-72.93-1.86-4.62-3.76-9.31-5.67-13.91,1.1.44,2.21.87,3.34,1.25h0a69.75,69.75,0,0,0,42.31.77c.91-.27,1.83-.58,2.76-.9l.13,0c1-.34,1.94-.71,2.92-1.1s1.86-.78,2.77-1.19l.77-.36q1.06-.49,2.1-1l.67-.34q1.34-.7,2.65-1.45l.31-.19q1.16-.68,2.29-1.4l.65-.42q1.09-.71,2.14-1.46l.37-.26q1.25-.9,2.47-1.86l.35-.28q1-.83,2-1.69l.5-.43c.76-.67,1.51-1.35,2.24-2a109.74,109.74,0,0,1,10,10.5c1.33,1.59,2.63,3.24,3.91,4.94l.09.11h15.86c-1.54-2.33-3.12-4.59-4.71-6.75Z" transform="translate(-37 -51)"/><path class="cls-3" d="M236.26,345.7c-.66-2.34-1.35-4.64-2.06-6.92-.26-.85-.52-1.71-.79-2.56q-1-3.26-2.14-6.43c-.24-.69-.49-1.36-.73-2q-.57-1.6-1.15-3.17c-.24-.64-.46-1.29-.7-1.92q-1.66-4.38-3.44-8.58-.89-2.1-1.81-4.15-2.75-6.15-5.75-11.84-1-1.9-2-3.74-2.05-3.69-4.22-7.15-3.24-5.2-6.72-9.89c-.27-.37-.55-.71-.82-1.07-1.28-1.7-2.58-3.35-3.91-4.94a109.71,109.71,0,0,0-10-10.56,69.78,69.78,0,0,1-15.76,11.41q-2.89,1.53-5.94,2.79a68.71,68.71,0,0,1-22.85,5.11q-1.73.09-3.47.09-3.41,0-6.73-.33a68.81,68.81,0,0,1-19-4.63c1.92,4.62,3.82,9.32,5.69,14,9.87,24.44,21,52.14,36.48,72.93,11.47,15.45,23.74,25.22,37.71,29.82q1.9.63,3.85,1.13a65.37,65.37,0,0,0,16.33,2,147,147,0,0,0,18.92-1.22c3.49-.44,6.89-1,10.4-1.54l.38-.06c-1.57-11-3.55-21.54-5.9-31.66q-1-4.4-2.15-8.68c-.11-.43-.22-.86-.33-1.28Q236.95,348.12,236.26,345.7Z" transform="translate(-37 -51)"/><path class="cls-3" d="M117.64,263l1,.47.85.38,1,.42.9.36,1,.36.94.34,1,.33,1.11.35,1.15.32,1.06.29,1.18.28,1,.24,1.22.23,1,.19,1.24.19,1,.15,1.27.14,1,.1,1.29.1,1,.06,1.3,0,1,0h2.11l1.5-.06.66,0,1.57-.12.58-.05,1.69-.2.46-.06q.94-.13,1.88-.29l.25,0a56.86,56.86,0,0,0,6.46-1.53c1.63-.49,3.23-1.06,4.8-1.69a58,58,0,0,0,25.26-19.73c.29-.4.57-.82.85-1.23a57.75,57.75,0,0,0,10-32q0-1.15,0-2.31A57.49,57.49,0,1,0,115.77,262l1,.52Z" transform="translate(-37 -51)"/></g></svg>