<svg xmlns="http://www.w3.org/2000/svg" viewBox="0 0 471.48 362.75"><defs><style>.cls-1{fill:#4b4e52;}.cls-2{fill:#783140;}.cls-3{fill:#fff;}</style></defs><title>user_value</title><g id="Ebene_6" data-name="Ebene 6"><path class="cls-1" d="M331.91,273.26c-3,.2-6.07.31-9.44.31a65.37,65.37,0,0,1-30.62-7.3,73,73,0,0,1-14.21-9.75,92,92,0,0,1-7.84-7.7q-1.49-1.65-2.93-3.37-2.16-2.59-4.19-5.34-1.36-1.83-2.67-3.73c-3.05-4.42-5.91-9.08-8.6-13.9l-1.14-2.07q-1.13-2.08-2.23-4.2L247,214.09q-1.62-3.19-3.16-6.44c-2.4-5-4.66-10.15-6.83-15.24q-.93-2.18-1.84-4.36C233,183,231,178,229,173.06c-3.65-9-7.13-17.64-10.62-25.18q-1.12-.89-2.2-1.83l-.9.87-.57.58a120.47,120.47,0,0,0-16.37,21q-1.82,2.92-3.53,6t-3.31,6.18q-1.6,3.14-3.1,6.38t-2.89,6.55c-.52,1.23-1,2.46-1.53,3.7l-7.61,22.1-.17.55c-.09.31-.17.62-.26.93q-.3,1-.59,2.08l-.24.86c-2.82,10.2-5,20.45-6.72,30.37l.73,1q3.08,4.16,6,8.78,1.92,3.08,3.74,6.35.91,1.64,1.8,3.32,2.66,5,5.11,10.51.81,1.82,1.6,3.68,1.58,3.72,3.05,7.61,2.21,5.84,4.19,12c.24.75.47,1.51.7,2.27a413.26,413.26,0,0,0,65.3,5.19,354.24,354.24,0,0,0,57.13-4.62l5.67-16.45c.5-1.24,1-2.47,1.53-3.7q1.39-3.31,2.89-6.55t3.1-6.38c.69-1.36,1.42-2.68,2.15-4Z" transform="translate(-20.26 -48.62)"/><path class="cls-2" d="M190.41,295.39q-1.48-3.89-3.05-7.61-.79-1.86-1.6-3.68-2.44-5.45-5.11-10.51-.89-1.68-1.8-3.32Q177,267,175.1,263.92q-2.88-4.62-6-8.78l-.73-1c-1.14-1.51-2.29-3-3.47-4.38a97.37,97.37,0,0,0-8.92-9.37,61.93,61.93,0,0,1-14,10.13q-2.57,1.36-5.27,2.47a61,61,0,0,1-20.28,4.54q-1.53.08-3.08.08-3,0-6-.29a61.07,61.07,0,0,1-16.85-4.11c1.7,4.1,3.39,8.27,5,12.38,8.76,21.69,18.68,46.27,32.38,64.73,10.18,13.71,21.07,22.39,33.47,26.47q1.69.56,3.42,1a58,58,0,0,0,14.49,1.76,130.44,130.44,0,0,0,16.79-1.08c3.09-.39,6.12-.86,9.23-1.36l.34-.05c-1.4-9.73-3.15-19.12-5.24-28.1q-1-4.49-2.2-8.84-.58-2.18-1.18-4.32c-.59-2.08-1.2-4.12-1.83-6.14-.23-.76-.46-1.52-.7-2.27Q192.62,301.23,190.41,295.39Z" transform="translate(-20.26 -48.62)"/><path class="cls-2" d="M306.49,89.36a51.17,51.17,0,1,0,1,8.59,51.23,51.23,0,0,0-1-8.59Z" transform="translate(-20.26 -48.62)"/><path class="cls-3" d="M292.18,136.11A46.1,46.1,0,0,1,285,142q-1,.69-2.07,1.33-2.1,1.28-4.34,2.36T274,147.58q-2.34.86-4.79,1.49-1.22.31-2.47.57a50.94,50.94,0,0,1-5.07.77,51.63,51.63,0,0,1-5.22.26,50.79,50.79,0,0,1-30.24-9.93l-1.36-1.08c-.56-.45-.81-.61-1.35-1.07l-7.36,7.46c.7.61,1.47,1.25,2.2,1.83,3.49,7.54,7,16.13,10.62,25.18,2,4.9,4,9.93,6.12,15q.91,2.17,1.84,4.36c2.17,5.09,4.44,10.2,6.83,15.24q1.54,3.24,3.16,6.44l1.09,2.12q1.1,2.11,2.23,4.2l1.14,2.07c2.69,4.82,5.55,9.48,8.6,13.9q1.31,1.89,2.67,3.73,2,2.75,4.19,5.34,1.44,1.73,2.93,3.37a92,92,0,0,0,7.84,7.7,72.94,72.94,0,0,0,14.21,9.75,65.37,65.37,0,0,0,30.62,7.3c3.37,0,6.48-.11,9.44-.31s5.75-.49,8.49-.83l1.64-.21,3.25-.46c1.62-.24,3.23-.5,4.87-.76l-1.32-10.4-.34.05a151.94,151.94,0,0,1-26,2.45c-20.25,0-36.57-9.29-51.38-29.23-13.7-18.45-23.62-43-32.38-64.73-1.66-4.11-3.35-8.29-5-12.38h0a61.36,61.36,0,0,0,65.43-12.82Z" transform="translate(-20.26 -48.62)"/><path class="cls-2" d="M344.94,198.19q0,.4,0,.79,0,.81.11,1.6c0,.2,0,.41.05.61q.11,1.07.25,2.13c0,.21.07.41.1.62.07.48.15,1,.24,1.44s.13.69.2,1,.13.62.2.93.19.83.29,1.24l.11.41A51.11,51.11,0,0,0,348.1,214v0a51.27,51.27,0,0,0,3.8,8l.34.57.65,1.05.54.83.56.84q.53.76,1.09,1.51l.2.26q.59.78,1.22,1.53l.41.48q.47.56,1,1.1l.5.55c.4.44.81.87,1.23,1.29l.09.09c.4.4.81.79,1.23,1.18l1.57,1.36c.59.51,1.21,1,1.83,1.52l1.67,1.32.28.2.71.5.84.56.73.48.84.52.79.47.8.46.91.5.72.38,1.12.55.55.27q.8.38,1.62.72l.09,0q1.81.77,3.68,1.4l.41.13,1.46.46.74.2,1.14.31,1.09.25.81.18,1.35.26.57.11,1.48.23.47.07,1.52.17.47,0,1.49.11.54,0,1.43.05h1.85l1.3,0,1,0q1.06-.06,2.11-.16l.94-.11,1.36-.17,1-.16,1.37-.24.87-.17q1-.21,2-.46l.22-.05c.73-.19,1.46-.4,2.18-.62l.77-.25,1.4-.47.95-.35,1.13-.45,1.1-.46.81-.37a51.3,51.3,0,0,0,8-4.57q1-.67,1.89-1.38c.37-.28.73-.58,1.09-.87q.84-.68,1.65-1.39l.84-.75q1-.92,1.95-1.9l.6-.62q1-1.1,2-2.26l.55-.67.84-1.07.55-.72c.29-.39.57-.79.84-1.18l.5-.72c.26-.38.5-.78.75-1.17A51.24,51.24,0,0,0,446.48,203l0-.3c.08-.6.15-1.2.2-1.8,0-.25,0-.51.06-.76,0-.59.09-1.18.11-1.77s0-1.31,0-2c0-.26,0-.51,0-.77,0-.56,0-1.12,0-1.67,0-.3,0-.6,0-.89q0-.78-.12-1.55c0-.3-.05-.59-.09-.89-.06-.54-.13-1.08-.21-1.61,0-.26-.07-.51-.11-.77-.12-.78-.26-1.56-.42-2.34s-.33-1.49-.51-2.23c-.07-.29-.15-.58-.23-.87s-.24-.86-.36-1.28-.23-.74-.35-1.11-.2-.61-.31-.91-.31-.88-.47-1.32l-.15-.37a51.27,51.27,0,0,0-3.33-7l0-.08a51.52,51.52,0,0,0-4.38-6.42l-.21-.27-.61-.72c-.66-.78-1.33-1.56-2-2.3l-.2-.21q-1.11-1.16-2.3-2.24l-.26-.24c-.78-.71-1.6-1.39-2.43-2.05l-.58-.46q-1.17-.9-2.39-1.74-.66-.45-1.33-.88l-.33-.21q-.83-.52-1.68-1l-.05,0a51.37,51.37,0,0,0-13.63-5.41l-.3-.07q-.88-.2-1.77-.38l-.68-.12c-.5-.09-1-.18-1.51-.26-.74-.11-1.48-.2-2.22-.28l-.65-.05c-.6-.05-1.2-.1-1.8-.14l-.65,0q-.88,0-1.77,0h-.68c-.76,0-1.51,0-2.26.06l-1,.07-1.24.1-1.27.13-.21,0q-1.62.2-3.22.5l-.43.08q-2.5.49-4.94,1.23l-.44.13-1.47.48-.69.25q-1,.36-2,.76l-1.22.51-.88.4q-.74.34-1.47.71l-.57.29q-1,.51-1.94,1.07-1.4.8-2.73,1.7l-.55.38q-1.12.77-2.2,1.59l-.56.43a51.59,51.59,0,0,0-5,4.46l-.33.35c-.75.78-1.47,1.57-2.17,2.39l-.06.07c-.72.86-1.41,1.74-2.08,2.64l-.28.39c-.63.86-1.23,1.75-1.8,2.65l-.07.11c-.57.9-1.09,1.83-1.6,2.76-.17.31-.34.63-.5.94l-.36.71c-.2.4-.39.81-.58,1.22-.12.26-.24.51-.36.77s-.31.73-.46,1.09c-.3.71-.58,1.43-.84,2.16l-.15.41q-.27.77-.52,1.55l-.1.3a51.43,51.43,0,0,0-1.91,8.92l0,.37q-.09.78-.16,1.57c0,.21,0,.42,0,.63q-.07.95-.1,1.9c0,.51,0,1,0,1.52,0,.28,0,.56,0,.85C344.91,197.22,344.92,197.71,344.94,198.19Z" transform="translate(-20.26 -48.62)"/><path class="cls-2" d="M373.12,253.26c1.7,4.09,3.39,8.26,5,12.37,2,4.85,4,9.86,6.07,14.87q.89,2.14,1.81,4.28c2.35,5.52,4.53,10.38,6.66,14.85,1,2.14,2,4.22,3,6.2l1,2c.71,1.36,1.42,2.71,2.13,4l1.09,2c2.65,4.74,5.36,9.13,8.07,13,.81,1.18,1.64,2.33,2.46,3.44,1.26,1.7,2.55,3.34,3.83,4.87.87,1,1.76,2.07,2.64,3a81.88,81.88,0,0,0,6.94,6.83,62.78,62.78,0,0,0,12.16,8.36,54.64,54.64,0,0,0,25.78,6.12c3,0,5.84-.09,8.73-.29,2.54-.17,5.13-.42,7.89-.77l1.54-.2,3.1-.44c1.58-.24,3.16-.49,4.76-.74l.34-.05c-7.44-51.89-25-94.05-49.72-116.64a61.36,61.36,0,0,1-65.4,12.83Z" transform="translate(-20.26 -48.62)"/><path class="cls-2" d="M347.41,251.5c-8.12-47.72-25.08-86.32-48.3-107.57a61.37,61.37,0,0,1-65.43,12.82c1.7,4.1,3.39,8.27,5,12.38,8.76,21.69,18.68,46.27,32.38,64.73,14.8,19.94,31.13,29.23,51.38,29.23a130.92,130.92,0,0,0,17.28-1.15q2.75-4.17,5.74-8Q346.44,252.69,347.41,251.5Z" transform="translate(-20.26 -48.62)"/><path class="cls-1" d="M491.18,385.75q-.2-3.41-.47-6.78t-.6-6.71c-.08-.8-.17-1.34-.26-2.13a14.11,14.11,0,0,0-.27-2.12H490v-.25c-2,.26-3.47.39-5.08.63-1.08.16-2.27.25-3.35.4-.54.07-1.14.11-1.69.18h-.25c-1.23.15-2.49.29-3.76.41l-2.35.21-2.19.16c-1.48.1-3,.18-4.56.23s-3.19.08-4.87.08q-2.17,0-4.27-.12t-4.14-.37q-2-.24-4-.6t-3.88-.82a64,64,0,0,1-14.32-5.39q-1-.5-1.9-1a70.82,70.82,0,0,1-7.23-4.67q-1.74-1.28-3.42-2.65-.84-.69-1.66-1.4-1-.89-2-1.82-2-1.86-3.92-3.85-1-1-1.89-2-1.49-1.65-2.93-3.37-2.16-2.59-4.19-5.34-1.36-1.83-2.67-3.73-2.29-3.31-4.44-6.8c-1.13-1.82-2.22-3.69-3.29-5.57-.29-.51-.59-1-.88-1.53l-1.14-2.07q-1.13-2.08-2.23-4.2l-1.09-2.12q-1.62-3.19-3.16-6.44c-2.4-5-4.66-10.15-6.83-15.24q-.93-2.18-1.84-4.36c-2.12-5.07-4.15-10.1-6.12-15-1.37-3.39-2.71-6.72-4-10l-1.33-3.2c-1.32-3.17-2.63-6.23-3.94-9.15q-.65-1.46-1.31-2.88-1.12-.89-2.2-1.83l-.9.87-.57.58q-2.28,2.3-4.44,4.79-1.16,1.33-2.29,2.72-1,1.19-1.92,2.4-3,3.86-5.74,8-1,1.53-2,3.09-1.82,2.92-3.53,6c-.4.71-.77,1.45-1.17,2.17-.72,1.33-1.45,2.65-2.15,4q-1.6,3.14-3.1,6.38t-2.89,6.55c-.52,1.23-1,2.46-1.53,3.7l-5.67,16.45-1.94,5.64-.17.55c-.09.31-.17.62-.26.93-.28,1-.55,2-.83,2.94a316.73,316.73,0,0,0-7.32,34c-1.11,6.89-2,13.58-2.65,20q-.2,1.91-.38,3.78-.36,3.74-.63,7.29-.15,1.91-.27,3.77t-.23,3.65q-.1,1.79-.18,3.51t-.14,3.24v.14q5.59,1.42,11.35,2.68t11.66,2.35q6.27,1.16,12.7,2.13,5.65.85,11.39,1.56,3.07.37,6.15.7c8.23.88,16.59,1.51,25,1.9q9.47.43,19,.44,9.32,0,18.27-.46,6-.31,11.8-.8c9.72-.83,19.19-2,28.51-3.59,11.18-1.85,22.16-4.19,33.14-6.9C491.64,394.91,491.45,390.3,491.18,385.75Z" transform="translate(-20.26 -48.62)"/><path class="cls-3" d="M430.74,233.42l-.22.21-.84.75q-.81.71-1.65,1.39c-.36.29-.72.59-1.09.87q-.93.71-1.89,1.38c-.21.14-.4.3-.61.44q-1,.69-2.07,1.33-2.1,1.28-4.34,2.36l-1,.45-.81.37-1.1.46-1.13.45-.54.21-.41.14-1.4.47-.77.25c-.72.22-1.45.43-2.18.62h0l-.2,0q-1,.25-2,.46l-.29.07-.59.1-1.37.24-1,.16-1.36.17-.75.1h-.2q-1,.1-2.11.16l-1,0-1.3,0h-1.85l-1.43-.05-.54,0-1.49-.11-.47,0-1.52-.17-.47-.07-1.48-.23-.57-.11-1.35-.26-.81-.18-1.09-.25-1.14-.31-.74-.2-1.46-.46-.41-.13q-1.87-.63-3.68-1.4l-.09,0q-.82-.35-1.62-.72l-.55-.27-1.12-.55-.72-.38-.91-.5-.8-.46-.79-.47-.84-.52-.73-.48-.84-.56-.71-.5-.23-.16-.37-.26-1.36-1.08c-.62-.49-1.24-1-1.83-1.52l-.27-.25-6.6,8.15c.71.62,1.47,1.24,2.2,1.83q.65,1.41,1.31,2.88c1.31,2.92,2.62,6,3.94,9.15l1.33,3.2c1.33,3.23,2.68,6.56,4,10,2,4.9,4,9.93,6.12,15q.91,2.17,1.84,4.36c2.17,5.09,4.44,10.2,6.83,15.24q1.54,3.24,3.16,6.44l1.09,2.12q1.1,2.11,2.23,4.2l1.14,2.07c.29.52.59,1,.88,1.53,1.07,1.88,2.16,3.74,3.29,5.57q2.15,3.48,4.44,6.8,1.31,1.89,2.67,3.73,2,2.75,4.19,5.34,1.44,1.73,2.93,3.37.93,1,1.89,2,1.91,2,3.92,3.85,1,.93,2,1.82.82.71,1.66,1.4,1.68,1.38,3.42,2.65.87.64,1.76,1.25,2.66,1.83,5.48,3.42.94.53,1.9,1a64,64,0,0,0,14.32,5.39q1.91.47,3.88.82l.33.05a69.72,69.72,0,0,0,12.09,1c2.53,0,4.91-.06,7.19-.18l2.25-.13,2.19-.17,2.14-.2.2,0c1.27-.13,2.51-.27,3.74-.42l.22,0,1.64-.21,3.25-.46c1.62-.24,3.23-.5,4.87-.76h0l-1.32-10.4-.34.05a151.93,151.93,0,0,1-26,2.45c-20.25,0-36.57-9.29-51.38-29.23-13.7-18.45-23.62-43-32.38-64.73-1.66-4.11-3.35-8.29-5-12.38h0a61.37,61.37,0,0,0,65.4-12.83Z" transform="translate(-20.26 -48.62)"/><path class="cls-2" d="M163.41,185.86a51.17,51.17,0,1,0,1,8.59,51.23,51.23,0,0,0-1-8.59Z" transform="translate(-20.26 -48.62)"/><path class="cls-1" d="M208.22,379q-.27-3.37-.6-6.71c-.08-.8-.17-1.59-.26-2.38s-.18-1.59-.27-2.38c-1.64.27-3.26.52-4.88.76l-3.25.46-1.64.21c-2.74.34-5.53.63-8.49.83s-6.07.31-9.44.31a65.37,65.37,0,0,1-30.62-7.3A72.94,72.94,0,0,1,134.58,353a92,92,0,0,1-7.84-7.7q-1.49-1.65-2.93-3.37-2.16-2.59-4.19-5.34-1.36-1.83-2.67-3.73c-3.05-4.42-5.91-9.08-8.6-13.9l-1.14-2.07q-1.13-2.08-2.23-4.2l-1.09-2.12q-1.62-3.19-3.16-6.44c-2.4-5-4.66-10.15-6.83-15.24q-.93-2.18-1.84-4.36c-2.12-5.07-4.15-10.1-6.12-15-3.65-9-7.13-17.64-10.62-25.18q-1.12-.89-2.2-1.83l-.9.87-.57.58a120.48,120.48,0,0,0-16.37,21q-1.82,2.92-3.53,6t-3.31,6.18q-1.6,3.14-3.1,6.38t-2.89,6.55c-.52,1.23-1,2.46-1.53,3.7l-7.61,22.1-.17.55c-.09.31-.17.62-.26.93-.28,1-.55,2-.83,2.94a348,348,0,0,0-11,65q-.15,1.91-.27,3.77c-.16,2.47-.3,4.86-.41,7.16q-.08,1.72-.14,3.37a400.9,400.9,0,0,0,97.27,11.75c33.15,0,62.45-4.51,91.71-11.75-.1-4.71-.28-9.33-.55-13.88Q208.49,382.33,208.22,379Z" transform="translate(-20.26 -48.62)"/><path class="cls-3" d="M148,233.65a51.26,51.26,0,0,1-6.07,4.81q-1,.69-2.07,1.33-2.1,1.28-4.34,2.36T131,244.08q-2.34.86-4.79,1.49-1.22.31-2.47.57a50.94,50.94,0,0,1-5.07.77,51.63,51.63,0,0,1-5.22.26,50.79,50.79,0,0,1-30.24-9.93l-1.36-1.08c-.62-.49-.93-.69-1.52-1.21l-.46-.39-6.73,8c.7.61,1.47,1.25,2.2,1.82,3.49,7.54,7,16.13,10.62,25.18,2,4.9,4,9.93,6.12,15q.91,2.17,1.84,4.36c2.17,5.09,4.44,10.2,6.83,15.24q1.54,3.24,3.16,6.44l1.09,2.12q1.1,2.11,2.23,4.2l1.14,2.07c2.69,4.82,5.55,9.48,8.6,13.9q1.31,1.89,2.67,3.73,2,2.75,4.19,5.34,1.44,1.73,2.93,3.37a92,92,0,0,0,7.84,7.7,72.94,72.94,0,0,0,14.21,9.75,65.37,65.37,0,0,0,30.62,7.3c3.37,0,6.48-.11,9.44-.31s5.75-.49,8.49-.83l1.64-.21,3.25-.46c1.62-.24,3.23-.5,4.87-.76l-1.32-10.4-.34.05a151.94,151.94,0,0,1-26,2.45c-20.25,0-36.57-9.29-51.38-29.23-13.7-18.45-23.62-43-32.38-64.73-1.66-4.11-3.35-8.29-5-12.38h0A61.36,61.36,0,0,0,156,240.43Z" transform="translate(-20.26 -48.62)"/><path class="cls-3" d="M317.74,310.26l5.68-16.46c.5-1.24,1-2.47,1.53-3.7q1.39-3.31,2.89-6.55t3.1-6.38q1.6-3.14,3.31-6.18t3.53-6a133.35,133.35,0,0,1,7.73-11.13c.83-1.08,1-1.36,1.91-2.4l-2.49-13.07a133.76,133.76,0,0,0-16.05,21c-1.28,2-2.55,4.19-3.77,6.36s-2.38,4.33-3.52,6.56-2.21,4.45-3.27,6.74-2.06,4.55-3,6.88c-.49,1.16-1.06,2.51-1.6,3.88l-.09.24-.08.24L306.05,312s4.9-.66,6.55-.9C313.87,310.87,317.74,310.26,317.74,310.26Z" transform="translate(-20.26 -48.62)"/><path class="cls-3" d="M206.79,311.38C198.31,282,186.1,257.86,171,240.73c0,0-.14.65-.35,1.64-.29,1.41-.71,3.46-1,4.82-.17.86-.48,2.52-.74,4s-.52,3-.52,3l.09.12.64.86q3.08,4.16,6,8.78,1.92,3.08,3.74,6.35.91,1.64,1.8,3.32,2.66,5,5.11,10.51.81,1.82,1.6,3.68,1.58,3.72,3.05,7.61,2.21,5.84,4.19,12l.72,2.28s3.64.59,5.36.83S206.79,311.38,206.79,311.38Z" transform="translate(-20.26 -48.62)"/></g></svg>